<?xml version="1.0" encoding="iso-8859-1"?>
<!-- Generator: Adobe Illustrator 16.0.0, SVG Export Plug-In . SVG Version: 6.00 Build 0)  -->
<!DOCTYPE svg PUBLIC "-//W3C//DTD SVG 1.1//EN" "http://www.w3.org/Graphics/SVG/1.1/DTD/svg11.dtd">
<svg version="1.1" id="Capa_1" xmlns="http://www.w3.org/2000/svg" xmlns:xlink="http://www.w3.org/1999/xlink" x="0px" y="0px"
	 width="60.541px" height="60.541px" viewBox="0 0 60.541 60.541" style="enable-background:new 0 0 60.541 60.541;"
	 xml:space="preserve">
<g>
	<g>
		<path d="M27.878,34.13c-0.156-0.049-0.334-0.086-0.541-0.114l-0.08-0.005c-3.767-0.198-5.388-0.103-8.271,0.78
			c0.018-0.041,0.784-2.464,0.797-2.508l4.112-13.042c0.257-0.812-0.196-1.684-1.01-1.938l-1.593-0.502
			c-0.813-0.257-1.685,0.195-1.938,1.01l-2.72,8.622c-0.16-0.433-0.512-0.787-0.982-0.937l-1.594-0.502
			c-0.699-0.221-1.441,0.083-1.799,0.691c-0.094-0.554-0.488-1.038-1.062-1.219l-1.592-0.502c-0.813-0.257-1.682,0.195-1.938,1.01
			l-0.107,0.34c0.258-0.814-0.197-1.683-1.01-1.94l-1.593-0.503c-0.813-0.256-1.684,0.197-1.939,1.011l-1.753,5.557
			c0,0-0.025,0.087-0.125,0.396c-0.25,0.931-1.133,8.34-1.133,8.34c-0.056,0.863,0.213,1.658,1.018,1.912l11.62,3.665
			c0.802,0.254,1.265-0.31,2.041-0.942c0,0,1.604-1.281,3.167-2.47c2.338-1.773,3.227-2.034,8.831-1.967
			c0,0,2.048-0.031,2.224-1.739l-0.09-0.936C28.739,35.079,28.493,34.326,27.878,34.13z"/>
		<path d="M60.534,38.172c0,0-0.883-7.408-1.133-8.339c-0.1-0.311-0.125-0.396-0.125-0.396l-1.752-5.558
			c-0.259-0.812-1.127-1.267-1.941-1.01l-1.592,0.503c-0.812,0.257-1.269,1.126-1.01,1.94l-0.109-0.34
			c-0.256-0.814-1.125-1.268-1.938-1.011l-1.591,0.503c-0.57,0.182-0.967,0.665-1.061,1.22c-0.355-0.608-1.102-0.912-1.799-0.691
			l-1.594,0.502c-0.473,0.149-0.822,0.504-0.982,0.937l-2.719-8.622c-0.257-0.813-1.127-1.267-1.939-1.011l-1.594,0.503
			c-0.812,0.256-1.268,1.126-1.008,1.938l4.11,13.042c0.015,0.044,0.778,2.467,0.797,2.508c-2.885-0.883-4.506-0.979-8.271-0.78
			l-0.08,0.005c-0.207,0.028-0.385,0.065-0.541,0.114c-0.615,0.194-0.859,0.948-0.938,1.566l-0.09,0.935
			c0.176,1.708,2.224,1.74,2.224,1.74c5.604-0.067,6.496,0.192,8.832,1.966c1.562,1.188,3.166,2.471,3.166,2.471
			c0.776,0.634,1.238,1.195,2.041,0.942l11.622-3.665C60.321,39.833,60.587,39.037,60.534,38.172z"/>
	</g>
</g>
<g>
</g>
<g>
</g>
<g>
</g>
<g>
</g>
<g>
</g>
<g>
</g>
<g>
</g>
<g>
</g>
<g>
</g>
<g>
</g>
<g>
</g>
<g>
</g>
<g>
</g>
<g>
</g>
<g>
</g>
</svg>
