<?xml version="1.0" encoding="utf-8"?>
<!-- Generator: Adobe Illustrator 17.0.0, SVG Export Plug-In . SVG Version: 6.00 Build 0)  -->
<!DOCTYPE svg PUBLIC "-//W3C//DTD SVG 1.1//EN" "http://www.w3.org/Graphics/SVG/1.1/DTD/svg11.dtd">
<svg version="1.1" id="Capa_1" xmlns="http://www.w3.org/2000/svg" xmlns:xlink="http://www.w3.org/1999/xlink" x="0px" y="0px"
	 width="93px" height="93px" viewBox="-16.8 -16.8 93 93" style="enable-background:new -16.8 -16.8 93 93;" xml:space="preserve">
<style type="text/css">
	.st0{fill:#CC3333;stroke:#CCCCCC;stroke-width:2;stroke-miterlimit:10;}
	.st1{fill:#FFFFFF;}
</style>
<circle class="st0" cx="29.6" cy="29.7" r="45"/>
<g>
	<path d="M54.1,33.3c0,5.8,0,11.6,0,17.3c0,0.8-0.1,0.9-0.9,0.9c-9.7,0-19.3,0-29,0c-0.4,0-0.9,0.1-1.3,0.3
		c-1.4,0.6-2.7,1.2-4.1,1.9c-0.6,0.3-0.7,0.2-1-0.4c-3.5-7.8-7-15.5-10.6-23.3c-1.3-2.9-2.7-5.9-4-8.8c-0.2-0.4,0-0.6,0.3-0.8
		c1.2-0.6,2.5-1.1,3.7-1.7c8.8-4,17.6-8,26.4-12c0.6-0.3,0.7-0.3,1,0.4c1.1,2.5,2.2,4.9,3.3,7.4c0.2,0.3,0.3,0.4,0.7,0.4
		c4.8,0,9.7,0,14.5,0c0.8,0,0.9,0.1,0.9,0.9C54.1,21.7,54.1,27.5,54.1,33.3z M53.1,50.7c0-11.6,0-23.2,0-34.7c-10.9,0-21.8,0-32.7,0
		c0,11.6,0,23.2,0,34.7C31.4,50.7,42.2,50.7,53.1,50.7z M4.1,21.2c4.8,10.6,9.6,21.2,14.4,31.7c0.9-0.4,1.7-0.8,2.6-1.2
		c0,0,0-0.1,0-0.1c-0.2,0-0.4,0-0.6,0c-0.8,0-0.9,0-0.9-0.9c0-2.2,0-4.4,0-6.6c0-0.2,0-0.3,0-0.5c-0.1,0-0.1,0-0.2,0
		c-0.5,0.2-1,0.5-1.5,0.7c-0.8,0.4-0.9,0.3-1.2-0.5c-3.2-7-6.3-13.9-9.5-20.9c-0.3-0.7-0.3-0.8,0.4-1.2c3.7-1.7,7.4-3.4,11.2-5.1
		c0.6-0.3,0.9-0.5,0.8-1.2c-0.1-0.4,0.2-0.6,0.6-0.6c0.6,0,1.1,0,1.7,0c0.5,0,1-0.1,1.5-0.3c2.9-1.3,5.9-2.7,8.8-4
		c0.6-0.3,0.8-0.2,1,0.4c0.5,1.2,1.1,2.4,1.6,3.6c0.1,0.1,0.3,0.3,0.4,0.3c0.6,0,1.3,0,2,0c-1.1-2.5-2.2-4.9-3.3-7.4
		C24,12.2,14,16.7,4.1,21.2z M19.5,28.9c0-3.9,0-7.7,0-11.5c-3.9,1.8-7.7,3.5-11.5,5.2c0,0.1,0,0.2,0,0.2c1.2,2.7,2.5,5.4,3.7,8.1
		c0.1,0.2,0.3,0.3,0.4,0.3c0.8,0.2,1.6-0.1,1.9-0.9c0.7-1.5,2.5-2.5,4.4-1.7C18.8,28.8,19.1,28.8,19.5,28.9z M19.5,32.6
		c-0.6,0.2-0.9,0.6-1.2,1.1c-0.7,1.3-2,1.9-3.5,1.4c-0.4-0.2-0.9-0.2-1.4-0.3c1.4,3,2.7,5.8,4,8.7c0.6-0.3,1.2-0.5,1.8-0.8
		c0.3-0.1,0.4-0.3,0.4-0.6c0-1.7,0-3.4,0-5C19.5,35.6,19.5,34.2,19.5,32.6z M19.5,29.8c-0.6-0.1-1.1-0.2-1.6-0.4
		c-1.2-0.4-2.4,0-3,1.2c-0.2,0.3-0.4,0.7-0.7,0.9c-0.5,0.5-1.2,0.7-2,0.7c0.3,0.6,0.5,1.1,0.8,1.7c0,0.1,0.2,0.2,0.3,0.2
		c0.6,0.1,1.3,0.1,1.9,0.3c1.1,0.3,1.7,0.1,2.3-0.8c0.4-0.8,1-1.3,1.7-1.7c0.1-0.1,0.3-0.2,0.3-0.3C19.6,30.9,19.5,30.3,19.5,29.8z
		 M25.1,14.9C25.1,14.9,25.1,14.9,25.1,14.9C28,15,31,15,34,15c-0.5-1.2-1-2.3-1.6-3.4C29.9,12.7,27.5,13.8,25.1,14.9z"/>
	<path class="st1" d="M53.1,50.7c-10.9,0-21.8,0-32.7,0c0-11.6,0-23.1,0-34.7c10.9,0,21.8,0,32.7,0C53.1,27.5,53.1,39.1,53.1,50.7z
		 M36.8,17.9c-4.5,0-9,0-13.5,0c-0.7,0-0.8,0.1-0.8,0.8c0,7.7,0,15.4,0,23.1c0,0.7,0.1,0.8,0.8,0.8c9,0,18,0,27,0
		c0.7,0,0.8-0.1,0.8-0.8c0-7.7,0-15.4,0-23.1c0-0.8-0.1-0.8-0.8-0.8C45.8,17.9,41.3,17.9,36.8,17.9z"/>
	<path class="st1" d="M4.1,21.2c10-4.5,19.9-9,29.8-13.5c1.1,2.5,2.2,4.9,3.3,7.4c-0.7,0-1.4,0-2,0c-0.1,0-0.3-0.2-0.4-0.3
		c-0.6-1.2-1.1-2.4-1.6-3.6c-0.3-0.6-0.4-0.7-1-0.4c-2.9,1.3-5.9,2.7-8.8,4c-0.5,0.2-1,0.4-1.5,0.3c-0.6,0-1.1,0-1.7,0
		c-0.4,0-0.6,0.2-0.6,0.6c0.1,0.7-0.2,0.9-0.8,1.2c-3.7,1.7-7.5,3.4-11.2,5.1c-0.7,0.3-0.8,0.4-0.4,1.2c3.2,7,6.3,13.9,9.5,20.9
		c0.4,0.8,0.4,0.8,1.2,0.5c0.5-0.2,1-0.5,1.5-0.7c0,0,0.1,0,0.2,0c0,0.2,0,0.3,0,0.5c0,2.2,0,4.4,0,6.6c0,0.9,0,0.9,0.9,0.9
		c0.2,0,0.4,0,0.6,0c0,0,0,0.1,0,0.1c-0.8,0.4-1.7,0.8-2.6,1.2C13.7,42.3,8.9,31.8,4.1,21.2z"/>
	<path class="st1" d="M19.5,28.9c-0.4-0.1-0.7-0.1-1-0.2c-1.9-0.8-3.7,0.2-4.4,1.7c-0.3,0.8-1.1,1.1-1.9,0.9c-0.2,0-0.4-0.2-0.4-0.3
		c-1.2-2.7-2.5-5.4-3.7-8.1c0,0,0-0.1,0-0.2c3.8-1.7,7.6-3.5,11.5-5.2C19.5,21.2,19.5,25,19.5,28.9z"/>
	<path class="st1" d="M19.5,32.6c0,1.5,0,3,0,4.5c0,1.7,0,3.4,0,5c0,0.3-0.1,0.5-0.4,0.6c-0.6,0.2-1.1,0.5-1.8,0.8
		c-1.3-2.9-2.6-5.7-4-8.7c0.6,0.1,1,0.1,1.4,0.3c1.5,0.6,2.8,0,3.5-1.4C18.6,33.2,19,32.9,19.5,32.6z"/>
	<path class="st1" d="M19.5,29.8c0,0.5,0,1.1,0,1.6c0,0.1-0.2,0.2-0.3,0.3c-0.8,0.4-1.3,1-1.7,1.7c-0.5,1-1.2,1.2-2.3,0.8
		c-0.6-0.2-1.3-0.2-1.9-0.3c-0.1,0-0.3-0.1-0.3-0.2c-0.3-0.5-0.5-1.1-0.8-1.7c0.8,0,1.4-0.1,2-0.7c0.3-0.3,0.5-0.6,0.7-0.9
		c0.7-1.1,1.8-1.6,3-1.2C18.4,29.6,18.9,29.6,19.5,29.8z"/>
	<path class="st1" d="M25.1,14.9c2.4-1.1,4.9-2.2,7.4-3.3c0.5,1.1,1,2.3,1.6,3.4C31,15,28,15,25.1,14.9
		C25.1,14.9,25.1,14.9,25.1,14.9z"/>
	<path d="M36.8,17.9c4.5,0,9,0,13.5,0c0.8,0,0.8,0.1,0.8,0.8c0,7.7,0,15.4,0,23.1c0,0.7-0.1,0.8-0.8,0.8c-9,0-18,0-27,0
		c-0.7,0-0.8-0.1-0.8-0.8c0-7.7,0-15.4,0-23.1c0-0.7,0.1-0.8,0.8-0.8C27.8,17.9,32.3,17.9,36.8,17.9z M49.3,26.9
		c-0.1-0.2-0.1-0.2-0.2-0.3c-0.8-1.2-1.9-1.7-3.3-1.6c-1.3,0.1-2.3,0.8-2.8,2c-1.2,2.9-2.4,5.7-3.6,8.6c-0.2,0.4-0.1,0.9,0,1.4
		c0.1,0.5,0.6,0.8,1.2,0.7c0.6-0.1,0.7-0.2,0.8-0.9c0.1-0.6,0.2-1.2,0.3-1.7c0.3-1.2,1.5-2.1,2.6-2.1c0.2,0,0.4,0.2,0.5,0.4
		c-0.2,0.1-0.3,0.4-0.5,0.4c-1.2,0.2-1.8,0.7-1.9,1.9c-0.1,0.9-0.2,1.7-0.3,2.6c-0.1,1.1-0.5,2.2-1.3,3c-0.1,0.1-0.1,0.2-0.2,0.3
		c0.4,0.1,0.6,0,0.9-0.3c0.6-0.5,1.2-1,1.8-1.5c0.3-0.2,0.3-0.3,0.2-0.6c-0.2-0.7-0.4-1.4-0.5-2.1c-0.1-0.7,0.4-1.3,1-1.6
		c0.6-0.3,1.3-0.3,1.8,0.1c0.3,0.2,0.4,0.2,0.7,0c0.7-0.4,1.4-0.4,2,0c0.7,0.5,1,1.1,0.8,1.9c-0.1,0.6-0.3,1.1-0.5,1.7
		c0,0.1-0.1,0.4,0,0.4c0.5,0.3,0.9,0.7,1.5,1c0-0.1,0-0.2,0-0.3c0.1-1.8-0.2-3.5-0.5-5.3c-0.1-0.7-0.8-1.3-1.5-1.4
		c-0.2,0-0.4,0-0.5-0.1c-0.2-0.1-0.3-0.3-0.4-0.4c0.2-0.1,0.3-0.4,0.5-0.4c0.8,0,1.4,0.3,1.9,0.9c0.1,0.1,0.2,0.2,0.4,0.4
		c0-5.2,0-10.3,0-15.4c-9,0-17.9,0-26.9,0c0,4.7,0,9.4,0,14.1c0.5-0.1,0.9-0.2,1.3-0.2c0.2,0,0.3,0.2,0.5,0.3
		c-0.1,0.1-0.2,0.3-0.4,0.4c-0.2,0.1-0.5,0.1-0.7,0.1c-0.7,0.2-0.7,0.2-0.7,0.9c0,2.2,0,4.5,0,6.7c0,0.2,0,0.4,0,0.6
		c0.5,0,0.9,0,1.4,0c0-0.2,0-0.4,0-0.6c0-1-0.1-2-0.1-3c0-0.3,0-0.7,0.4-0.7c0.4,0,0.4,0.3,0.4,0.6c0,1,0.1,2,0.1,3
		c0,0.2,0,0.4,0.1,0.6c2,0,3.9,0,5.9,0c0-0.9,0.1-1.8,0.1-2.7c0-0.4,0-0.8,0.1-1.2c0-0.1,0.3-0.4,0.4-0.3c0.1,0,0.3,0.2,0.4,0.4
		c0.1,0.1,0,0.3,0,0.4c-0.1,1.1-0.1,2.2-0.2,3.4c0.2,0,0.4,0,0.6,0c1.8,0,3.6-0.1,5.4,0c1,0,1.6-0.4,2.2-1.1
		c0.5-0.7,0.9-1.4,0.8-2.2c-0.5,0-1,0-1.4-0.1c-1.2-0.4-1.7-1.8-1.2-3.1c1.2-2.8,2.3-5.6,3.5-8.4c1-2.4,3.3-3.4,5.7-2.5
		c1,0.4,1.7,1.1,2.2,2.1C49.7,26.7,49.5,26.8,49.3,26.9z M48.6,37.5c-0.1-0.5-0.3-0.9-0.8-1.1c-0.5-0.2-0.9-0.1-1.2,0.3
		c-0.5,0.5-0.6,0.5-1.1,0c-0.3-0.4-0.7-0.5-1.2-0.3c-0.4,0.2-0.7,0.6-0.6,1.1c0.2,0.7,0.3,1.4,0.7,2c0.6,1.1,2.8,1.1,3.5,0
		C48.2,38.8,48.4,38.1,48.6,37.5z M42.5,41.6C42.5,41.6,42.5,41.7,42.5,41.6c2.5,0.1,4.9,0.1,7.4,0.1c-0.3-0.3-0.5-0.5-0.7-0.6
		c-0.5-0.4-0.9-0.7-1.6-0.3c-1.1,0.6-2.3,0.4-3.4-0.4C43.5,40.8,43,41.2,42.5,41.6z"/>
	<path class="st1" d="M49.3,26.9c0.2-0.1,0.4-0.2,0.7-0.3c-0.5-1-1.2-1.7-2.2-2.1c-2.4-0.9-4.7,0.1-5.7,2.5
		c-1.1,2.8-2.3,5.6-3.5,8.4c-0.5,1.3,0,2.7,1.2,3.1c0.4,0.1,0.9,0.1,1.4,0.1c0,0.8-0.3,1.6-0.8,2.2c-0.5,0.7-1.2,1.1-2.2,1.1
		c-1.8-0.1-3.6,0-5.4,0c-0.2,0-0.4,0-0.6,0c0.1-1.2,0.1-2.3,0.2-3.4c0-0.1,0-0.3,0-0.4c-0.1-0.2-0.2-0.4-0.4-0.4
		c-0.1,0-0.4,0.2-0.4,0.3c-0.1,0.4-0.1,0.8-0.1,1.2c0,0.9-0.1,1.8-0.1,2.7c-2,0-3.9,0-5.9,0c0-0.2,0-0.4-0.1-0.6c0-1-0.1-2-0.1-3
		c0-0.3,0-0.6-0.4-0.6c-0.4,0-0.4,0.4-0.4,0.7c0,1,0.1,2,0.1,3c0,0.2,0,0.4,0,0.6c-0.5,0-0.9,0-1.4,0c0-0.2,0-0.4,0-0.6
		c0-2.2,0-4.5,0-6.7c0-0.7,0-0.8,0.7-0.9c0.2-0.1,0.5,0,0.7-0.1c0.2-0.1,0.3-0.3,0.4-0.4c-0.2-0.1-0.3-0.4-0.5-0.3
		c-0.4,0-0.8,0.1-1.3,0.2c0-4.7,0-9.4,0-14.1c8.9,0,17.9,0,26.9,0c0,5.1,0,10.2,0,15.4c-0.2-0.2-0.3-0.2-0.4-0.4
		c-0.5-0.6-1.2-0.9-1.9-0.9c-0.2,0-0.3,0.2-0.5,0.4c0.1,0.1,0.2,0.3,0.4,0.4c0.1,0.1,0.3,0,0.5,0.1c0.7,0.1,1.3,0.7,1.5,1.4
		c0.3,1.7,0.7,3.5,0.5,5.3c0,0.1,0,0.1,0,0.3c-0.5-0.4-1-0.7-1.5-1c-0.1,0,0-0.3,0-0.4c0.2-0.6,0.4-1.1,0.5-1.7
		c0.2-0.8-0.2-1.5-0.8-1.9c-0.6-0.4-1.4-0.4-2,0c-0.3,0.2-0.4,0.2-0.7,0c-0.6-0.4-1.2-0.4-1.8-0.1c-0.6,0.3-1.1,0.9-1,1.6
		c0.1,0.7,0.3,1.4,0.5,2.1c0.1,0.3,0.1,0.4-0.2,0.6c-0.6,0.5-1.2,1-1.8,1.5c-0.3,0.2-0.5,0.4-0.9,0.3c0.1-0.1,0.1-0.2,0.2-0.3
		c0.8-0.8,1.1-1.9,1.3-3c0.1-0.9,0.2-1.7,0.3-2.6c0.2-1.2,0.7-1.8,1.9-1.9c0.2,0,0.3-0.3,0.5-0.4c-0.2-0.1-0.4-0.4-0.5-0.4
		c-1.1-0.1-2.3,0.9-2.6,2.1c-0.1,0.6-0.2,1.1-0.3,1.7c-0.1,0.7-0.2,0.8-0.8,0.9c-0.6,0.1-1.1-0.2-1.2-0.7c-0.1-0.4-0.1-1,0-1.4
		c1.2-2.9,2.3-5.8,3.6-8.6c0.5-1.2,1.5-1.9,2.8-2c1.4-0.1,2.5,0.4,3.3,1.6C49.1,26.6,49.2,26.7,49.3,26.9z M28.4,31.2
		c2.3,0.1,3.9-2.1,3.2-4.3c-0.1-0.2,0-0.5,0.1-0.6c0.7-1,0.7-2.2,0-3.2c-0.3-0.3-0.5-0.4-0.8,0c-0.4,0.5-0.9,0.6-1.5,0.5
		c-0.4-0.1-0.9-0.2-1.3-0.3c-1.9-0.8-3.9,1.1-3.5,3c0.2,0.8,0.5,1.5,0.6,2.2C25.5,30,26.9,31.1,28.4,31.2z M41.7,23.3
		c-0.1-1.1-0.5-1.9-1.5-2.3c-0.9-0.4-1.8-0.2-2.5,0.5c-0.2,0.2-0.4,0.1-0.6-0.1c-0.7-0.7-1.7-0.8-2.6-0.4c-1.3,0.7-1.7,2.1-1,3.4
		c0.9,1.5,2.3,2.5,3.7,3.4c0.1,0.1,0.4,0.1,0.5,0c1.2-0.8,2.3-1.6,3.2-2.8C41.4,24.6,41.7,24,41.7,23.3z M46.2,32.1
		c1.3,0,2.5-0.9,2.9-2.2c0.1-0.3,0.3-0.5,0.3-0.7c0-0.2,0-0.4-0.1-0.5c-0.8-0.5-1.1-1.2-1.3-2.1c0-0.2-0.2-0.4-0.3-0.4
		c-0.2,0-0.4,0.2-0.5,0.3c-0.3,0.3-0.6,0.6-0.9,0.9c-0.9,0.6-1.9,1-3,1.1c-0.5,0.1-0.6,0.3-0.3,0.7c0.1,0.1,0.2,0.3,0.2,0.4
		C43.5,31.1,44.6,32.1,46.2,32.1z M27.1,37.6C27.1,37.6,27.1,37.6,27.1,37.6c0,0.3,0,0.6,0.2,0.9c0.2,0.5,0.5,0.9,0.8,1.4
		c0.3,0.4,0.6,0.5,0.8,0c0.3-0.4,0.5-0.8,0.7-1.2c0.3-0.4,0.3-0.8,0.3-1.3c-0.1-0.9-0.2-1.8-0.3-2.7c-0.1-1.5-0.1-1.5-1.6-1.4
		c-0.4,0-0.6,0.2-0.6,0.6C27.4,35.2,27.3,36.4,27.1,37.6z M34.9,38.2C34.9,38.2,35,38.2,34.9,38.2c0,0.7,0,1.5,0,2.2
		c0,0.3,0,0.6,0.4,0.6c0.4,0,0.5-0.3,0.5-0.6c0-1.3,0-2.6,0-3.9c-0.1-2.1-1.4-3.7-3.4-3.8c-0.2,0-0.5,0.1-0.6,0.3
		c-0.1,0.3,0.2,0.4,0.5,0.5c0.1,0,0.2,0,0.2,0c1.3,0.2,2.3,1.1,2.3,2.4C35,36.7,34.9,37.5,34.9,38.2z M28.5,32.1
		C28.5,32.1,28.5,32.1,28.5,32.1c-0.2,0-0.4,0-0.6,0c-0.2,0.1-0.3,0.2-0.4,0.4c0.1,0.1,0.3,0.4,0.4,0.4c0.4,0.1,0.8,0,1.2,0
		c0.1,0,0.4-0.3,0.3-0.4c0-0.2-0.2-0.3-0.4-0.4C28.9,32.1,28.7,32.1,28.5,32.1z"/>
	<path class="st1" d="M48.6,37.5c-0.2,0.7-0.4,1.4-0.8,2c-0.6,1.1-2.9,1-3.5,0c-0.3-0.6-0.5-1.3-0.7-2c-0.1-0.4,0.2-0.9,0.6-1.1
		c0.5-0.2,0.9-0.1,1.2,0.3c0.5,0.6,0.6,0.6,1.1,0c0.3-0.4,0.7-0.5,1.2-0.3C48.3,36.5,48.5,36.9,48.6,37.5z"/>
	<path class="st1" d="M42.5,41.6c0.5-0.4,1-0.8,1.6-1.2c1.1,0.7,2.3,1,3.4,0.4c0.7-0.4,1.2-0.1,1.6,0.3c0.2,0.2,0.4,0.4,0.7,0.6
		C47.3,41.7,44.9,41.7,42.5,41.6C42.5,41.7,42.5,41.6,42.5,41.6z"/>
	<path d="M28.4,31.2c-1.6,0-2.9-1.2-3.2-2.7c-0.2-0.8-0.4-1.5-0.6-2.2c-0.4-1.9,1.6-3.8,3.5-3c0.4,0.2,0.9,0.3,1.3,0.3
		c0.6,0.1,1.1,0,1.5-0.5c0.3-0.4,0.5-0.3,0.8,0c0.8,1,0.8,2.3,0,3.2c-0.1,0.1-0.1,0.4-0.1,0.6C32.3,29.1,30.7,31.2,28.4,31.2z
		 M26.7,26c-1.1,1.4-0.8,3.3,0.7,4c1,0.5,1.9,0.3,2.7-0.4c0.7-0.6,1-1.4,0.8-2.3C30.8,27,30.7,27,30.4,27c-0.4,0.1-0.8,0.1-1.1,0.1
		C28.3,27.1,27.5,26.6,26.7,26z M25.5,26c0.2-0.3,0.4-0.5,0.6-0.7c0.5-0.5,0.7-0.5,1.2,0c0.2,0.2,0.4,0.3,0.7,0.5
		c0.8,0.5,1.7,0.7,2.6,0.2c0.8-0.4,1-1.1,0.6-1.8c-0.6,0.1-1.1,0.3-1.7,0.2c-0.6,0-1.2-0.2-1.8-0.4C26.5,23.7,25.3,24.7,25.5,26z"/>
	<path d="M41.7,23.3c0,0.7-0.3,1.3-0.7,1.8c-0.9,1.1-2,2-3.2,2.8c-0.1,0.1-0.4,0.1-0.5,0c-1.4-0.9-2.8-1.9-3.7-3.4
		c-0.7-1.3-0.3-2.7,1-3.4c0.8-0.4,1.8-0.3,2.6,0.4c0.2,0.2,0.3,0.3,0.6,0.1c0.7-0.7,1.6-0.9,2.5-0.5C41.2,21.5,41.6,22.3,41.7,23.3z
		 M34.1,23.5c0.1,0.2,0.2,0.7,0.5,1c0.6,0.6,1.2,1.3,1.8,1.8c1,0.9,1.1,0.9,2.1,0c0.8-0.7,1.5-1.4,2.1-2.2c0.6-0.8,0.2-1.9-0.7-2.3
		c-0.8-0.4-1.6,0-2.1,0.9c-0.1,0.2-0.3,0.4-0.5,0.4c-0.2,0-0.4-0.3-0.5-0.5c-0.3-0.7-1-1.2-1.7-1C34.6,21.8,34,22.6,34.1,23.5z"/>
	<path d="M46.2,32.1c-1.6,0-2.7-1-3-2.6c0-0.2-0.1-0.3-0.2-0.4c-0.3-0.4-0.2-0.6,0.3-0.7c1.1-0.1,2.1-0.5,3-1.1
		c0.3-0.2,0.6-0.6,0.9-0.9c0.1-0.1,0.3-0.3,0.5-0.3c0.1,0,0.3,0.3,0.3,0.4c0.2,0.9,0.5,1.6,1.3,2.1c0.1,0.1,0.1,0.3,0.1,0.5
		c-0.1,0.3-0.3,0.5-0.3,0.7C48.7,31.2,47.5,32.1,46.2,32.1z M47.4,27.6c-1.1,0.5-2.2,1.1-3.4,1.6c0,1,0.9,1.9,2,1.9
		c1.2,0,2.2-0.8,2.3-1.9c0-0.1,0-0.2,0-0.3C48,28.4,47.7,28,47.4,27.6z"/>
	<path d="M27.1,37.6c0.1-1.2,0.2-2.5,0.3-3.7c0-0.4,0.2-0.5,0.6-0.6c1.5-0.1,1.5-0.1,1.6,1.4c0.1,0.9,0.2,1.8,0.3,2.7
		c0.1,0.5,0,0.9-0.3,1.3c-0.3,0.4-0.5,0.8-0.7,1.2c-0.3,0.4-0.6,0.4-0.8,0c-0.3-0.5-0.5-0.9-0.8-1.4C27.2,38.3,27.2,38,27.1,37.6
		C27.1,37.6,27.1,37.6,27.1,37.6z M28.6,38.9c0.2-0.4,0.4-0.8,0.4-1.2c0-1.1-0.2-2.1-0.3-3.2c0-0.1-0.2-0.2-0.3-0.3
		c-0.1,0.1-0.2,0.2-0.2,0.3c-0.1,0.9-0.2,1.8-0.3,2.7C28,37.9,28.1,38.4,28.6,38.9z"/>
	<path d="M34.9,38.2c0-0.7,0-1.5,0-2.2c-0.1-1.3-1.1-2.3-2.3-2.4c-0.1,0-0.2,0-0.2,0c-0.3-0.1-0.6-0.2-0.5-0.5
		c0.1-0.2,0.4-0.3,0.6-0.3c2,0.2,3.3,1.7,3.4,3.8c0,1.3,0,2.6,0,3.9c0,0.3-0.1,0.6-0.5,0.6C35,41,35,40.7,35,40.4
		C35,39.7,35,38.9,34.9,38.2C35,38.2,34.9,38.2,34.9,38.2z"/>
	<path d="M28.5,32.1c0.2,0,0.4-0.1,0.6,0c0.2,0.1,0.4,0.2,0.4,0.4c0,0.1-0.2,0.3-0.3,0.4c-0.4,0.1-0.8,0.1-1.2,0
		c-0.2,0-0.3-0.3-0.4-0.4c0.1-0.1,0.3-0.3,0.4-0.4C28.1,32.1,28.3,32.1,28.5,32.1C28.5,32.1,28.5,32.1,28.5,32.1z"/>
	<path class="st1" d="M26.7,26c0.8,0.6,1.6,1.1,2.6,1.1c0.4,0,0.8,0,1.1-0.1c0.3-0.1,0.4,0,0.4,0.3c0.2,0.9-0.1,1.7-0.8,2.3
		c-0.8,0.7-1.7,0.8-2.7,0.4C25.9,29.3,25.6,27.4,26.7,26z"/>
	<path class="st1" d="M25.5,26c-0.2-1.3,1-2.4,2.2-2c0.6,0.2,1.2,0.4,1.8,0.4c0.5,0,1.1-0.1,1.7-0.2c0.4,0.7,0.2,1.4-0.6,1.8
		c-0.9,0.5-1.8,0.2-2.6-0.2c-0.2-0.1-0.4-0.3-0.7-0.5c-0.5-0.4-0.7-0.4-1.2,0C25.9,25.5,25.7,25.8,25.5,26z"/>
	<path class="st1" d="M47.4,27.6c0.3,0.4,0.6,0.8,0.9,1.3c0.1,0.1,0.1,0.2,0,0.3c-0.1,1.1-1.1,2-2.3,1.9c-1.1,0-2-0.9-2-1.9
		C45.2,28.7,46.3,28.2,47.4,27.6z"/>
	<path class="st1" d="M28.6,38.9c-0.5-0.6-0.6-1-0.6-1.7c0.1-0.9,0.2-1.8,0.3-2.7c0-0.1,0.1-0.2,0.2-0.3c0.1,0.1,0.2,0.2,0.3,0.3
		c0.1,1.1,0.2,2.1,0.3,3.2C29.1,38.1,28.8,38.5,28.6,38.9z"/>
</g>
</svg>
