<?xml version="1.0" encoding="utf-8"?>
<!-- Generator: Adobe Illustrator 17.0.0, SVG Export Plug-In . SVG Version: 6.00 Build 0)  -->
<!DOCTYPE svg PUBLIC "-//W3C//DTD SVG 1.1//EN" "http://www.w3.org/Graphics/SVG/1.1/DTD/svg11.dtd">
<svg version="1.1" id="Capa_1" xmlns="http://www.w3.org/2000/svg" xmlns:xlink="http://www.w3.org/1999/xlink" x="0px" y="0px"
	 width="93px" height="93px" viewBox="-16.8 -16.8 93 93" style="enable-background:new -16.8 -16.8 93 93;" xml:space="preserve">
<style type="text/css">
	.st0{fill:#FFFFFF;stroke:#CCCCCC;stroke-width:2;stroke-miterlimit:10;}
	.st1{fill:#CC3333;stroke:#CCCCCC;stroke-width:0.25;stroke-miterlimit:10;}
</style>
<circle class="st0" cx="29.7" cy="29.7" r="45"/>
<g>
	<g>
		<path class="st1" d="M15,18.5c0.1,0,0.2,0.1,0.3,0.1c11.2,0.1,17.5,3.1,20.8,5.6c0.2,0.1,0.4,0.2,0.7,0.1c0,0,0.1,0,0.1,0
			c0.2-0.1,0.3-0.4,0.3-0.7c-0.6-2.6-1.6-5.4-2.9-8.2c-2,1.2-3.2,2.8-3.5,3.1c-0.5-0.7-6-7.9-13.7-2.3C16.2,16.8,15.5,17.6,15,18.5z
			"/>
		<path class="st1" d="M38.6,31.8c0,0.3,0.1,0.5,0.3,0.7c0.2,0.1,0.4,0.1,0.6,0c0.1,0,0.1-0.1,0.2-0.1c2.9-2.6,5.6-6.1,8-10.4
			c-0.4-2.5-1.5-4.6-3.3-5.8c-3.8-2.7-7-2.4-9.4-1.3C38.7,22.6,39.1,28.3,38.6,31.8z"/>
		<path class="st1" d="M47.8,23.7c-5.5,8.9-11.1,12.6-14.6,14.1c-0.2,0.1-0.4,0.4-0.4,0.6c0,0.3,0.2,0.5,0.5,0.6
			c1.6,0.5,3.3,0.9,5.1,1.2c2.5-2.3,5.2-5.1,7-8.1C47.1,29.3,47.9,26.4,47.8,23.7z"/>
		<path class="st1" d="M24.6,36.1c-0.2,0.2-0.3,0.4-0.3,0.7c0.4,2,1.1,4,2,6.1c2.2,1.8,4,3.1,4.4,3.3c0,0,0,0,0,0c0,0,0,0,0,0
			c0.5-0.3,3.4-2.4,6.6-5.2c-5.9-1.1-9.7-3.1-12-4.9C25.2,36,24.9,36,24.6,36.1z"/>
		<path class="st1" d="M22.9,28.5c0-0.3-0.1-0.5-0.3-0.7c-0.2-0.1-0.5-0.1-0.7,0.1c-1.7,1.5-3.3,3.4-4.8,5.4c2.2,3.1,5.2,6,7.8,8.3
			C22.7,35.9,22.5,31.5,22.9,28.5z"/>
		<path class="st1" d="M14.5,19.6c-1.4,3.4-1,8.2,1.7,12.6c0.1,0.1,0.2,0.3,0.3,0.4c4.5-6,8.9-8.8,11.8-10c0.2-0.1,0.4-0.4,0.4-0.6
			c0-0.3-0.2-0.5-0.5-0.6C24.3,20.1,19.7,19.5,14.5,19.6z"/>
		<path class="st1" d="M6.5,20.2c1,0,1.8-0.8,1.8-1.8V8.7H18c1,0,1.8-0.8,1.8-1.8S19,5.2,18,5.2H8c-1.8,0-3.2,1.5-3.2,3.2v10
			C4.7,19.4,5.5,20.2,6.5,20.2z"/>
		<path class="st1" d="M53.5,5.2h-10c-1,0-1.8,0.8-1.8,1.8s0.8,1.8,1.8,1.8h9.7v9.7c0,1,0.8,1.8,1.8,1.8c1,0,1.8-0.8,1.8-1.8v-10
			C56.7,6.7,55.3,5.2,53.5,5.2z"/>
		<path class="st1" d="M55,39.1c-1,0-1.8,0.8-1.8,1.8v9.7h-9.7c-1,0-1.8,0.8-1.8,1.8s0.8,1.8,1.8,1.8h10c1.8,0,3.2-1.5,3.2-3.2v-10
			C56.7,39.9,56,39.1,55,39.1z"/>
		<path class="st1" d="M18,50.6H8.2v-9.7c0-1-0.8-1.8-1.8-1.8c-1,0-1.8,0.8-1.8,1.8v10c0,1.8,1.5,3.2,3.2,3.2h10
			c1,0,1.8-0.8,1.8-1.8C19.7,51.4,19,50.6,18,50.6z"/>
	</g>
</g>
</svg>
