<?xml version="1.0" encoding="utf-8"?>
<!-- Generator: Adobe Illustrator 17.0.0, SVG Export Plug-In . SVG Version: 6.00 Build 0)  -->
<!DOCTYPE svg PUBLIC "-//W3C//DTD SVG 1.1//EN" "http://www.w3.org/Graphics/SVG/1.1/DTD/svg11.dtd">
<svg version="1.1" id="Capa_1" xmlns="http://www.w3.org/2000/svg" xmlns:xlink="http://www.w3.org/1999/xlink" x="0px" y="0px"
	 width="92px" height="92px" viewBox="-16.3 -16.3 92 92" style="enable-background:new -16.3 -16.3 92 92;" xml:space="preserve">
<style type="text/css">
	.st0{fill:#CC3333;stroke:#CCCCCC;stroke-width:2;stroke-miterlimit:10;}
	.st1{fill:#FFFFFF;}
</style>
<circle class="st0" cx="29.7" cy="29.7" r="45"/>
<g>
	<g>
		<path class="st1" d="M41.3,12.4c-0.2,0-0.3,0.1-0.3,0.3c0,0.3-0.2,0.5-0.5,0.5c-0.3,0-0.5-0.2-0.5-0.5c0-0.2-0.1-0.3-0.3-0.3
			c-0.2,0-0.3,0.1-0.3,0.3c0,0.6,0.5,1.1,1.1,1.1c0.6,0,1.1-0.5,1.1-1.1C41.6,12.5,41.5,12.4,41.3,12.4z"/>
		<path class="st1" d="M41,16.5h-0.9c-0.2,0-0.4,0.2-0.4,0.4v0.1l0.2-0.2c0.1-0.1,0.1-0.1,0.2,0c0.1,0,0.1,0.1,0,0.2l-0.4,0.4v0.2
			l0.5-0.5c0,0,0.1,0,0.2,0c0,0,0.1,0.1,0,0.2L39.7,18v0.1c0,0,0,0.1,0,0.1l0.7-0.7c0,0,0.1,0,0.2,0c0.1,0.1,0.1,0.1,0,0.2l-0.8,0.8
			c0.1,0,0.1,0.1,0.2,0.1H41c0.2,0,0.4-0.2,0.4-0.4v-1.1C41.4,16.7,41.2,16.5,41,16.5z"/>
		<path class="st1" d="M42.6,19.5v-6.9c0-0.2-0.2-0.4-0.4-0.4H42v7.6h0.3C42.5,19.9,42.6,19.7,42.6,19.5z"/>
		<path class="st1" d="M44.7,19.1h0.6v-6.2h-0.6c-0.5,0-0.8,0.4-0.8,0.9v4.5C43.8,18.8,44.2,19.1,44.7,19.1z"/>
		<path class="st1" d="M49.8,18.3v-4.5c0-0.9-0.1-0.9-0.8-0.9h-2.9v6.2H49C49.7,19.1,49.8,19.1,49.8,18.3z"/>
		<path class="st1" d="M50.1,53.3c0-0.1,0-0.3-0.1-0.4l-8.9-12.9v-2.7c0.5-0.1,0.8-0.6,0.8-1.1c0-0.5-0.4-0.9-0.8-1.1V22.5h0.9
			c0.6,0,1.1-0.5,1.1-1.1c0-0.3-0.1-0.6-0.3-0.8c0.4-0.2,0.6-0.6,0.6-1.1v-6.9c0-0.7-0.5-1.2-1.2-1.2H42l-0.3-0.6c0,0,0,0,0,0
			c-0.1-0.2-0.3-0.3-0.8-0.3h-0.8c-0.4,0-0.7,0.2-0.8,0.4c0,0,0,0,0,0l-0.3,0.6h-0.3c-0.7,0-1.2,0.5-1.2,1.2v6.9
			c0,0.5,0.3,0.9,0.7,1.1c-0.2,0.2-0.3,0.5-0.3,0.7c0,0.6,0.5,1.1,1.1,1.1h0.3l-4.2,4.7c-0.4-0.2-0.8-0.3-1,0L32.8,29
			c-0.2,0.3-0.1,0.8,0.3,1.2l0.1,0.1c0.4,0.4,1,0.4,1.2,0.2l1.5-1.7c0.2-0.2,0.1-0.7-0.1-1l4.3-4.8v12.3c-0.5,0.1-0.8,0.6-0.8,1.1
			c0,0.5,0.4,0.9,0.8,1.1v2.7l-8.8,12.9c-0.1,0.1-0.1,0.3-0.1,0.4c-0.9,0.1-1.5,0.2-1.5,0.4c0,0.2,0.9,0.4,2.1,0.4
			c1.2,0,2.1-0.2,2.1-0.4c0-0.2-0.6-0.4-1.5-0.4L40,42v8.7c0,0.1,0,0.2,0.1,0.3c-0.9,0-1.6,0.2-1.6,0.4c0,0.2,0.9,0.4,2.1,0.4
			c1.2,0,2.1-0.2,2.1-0.4c0-0.2-0.7-0.4-1.6-0.4c0-0.1,0.1-0.2,0.1-0.3V42l7.7,11.3c-0.9,0.1-1.5,0.2-1.5,0.4c0,0.2,0.9,0.4,2.1,0.4
			c1.2,0,2.1-0.2,2.1-0.4C51.7,53.5,51,53.3,50.1,53.3z M38.8,20.1c-0.3,0-0.6-0.3-0.6-0.6v-6.9c0-0.3,0.3-0.6,0.6-0.6h0.5
			c0.1,0,0.2-0.1,0.3-0.2l0.4-0.7c0,0,0.1-0.1,0.2-0.1h0.8c0.1,0,0.2,0,0.2,0.1l0.4,0.7c0.1,0.1,0.2,0.2,0.3,0.2h0.5
			c0.3,0,0.6,0.3,0.6,0.6v6.9c0,0.3-0.3,0.6-0.6,0.6H38.8z"/>
		<path class="st1" d="M34.6,47.2l1.3-1.8c0.1-0.1,0.1-0.3-0.1-0.4c-0.1-0.1-0.3-0.1-0.4,0.1l-1.3,1.8c-0.1,0.1-0.1,0.3,0.1,0.4
			C34.4,47.4,34.5,47.4,34.6,47.2z"/>
		<path class="st1" d="M45.3,45.4l1.3,1.8c0.1,0.1,0.3,0.2,0.4,0.1c0.1-0.1,0.2-0.3,0.1-0.4l-1.3-1.8C45.6,45,45.5,45,45.3,45
			C45.2,45.1,45.2,45.3,45.3,45.4z"/>
		<path class="st1" d="M19.7,31.8l4.7-9.1l7.2,3.7c1.1,0.5,2.4,0.1,2.9-1c0.5-1.1,0.1-2.4-1-2.9l-7.9-4c-0.1-2.1-1.3-4.1-3.3-5.1
			c-3-1.5-6.7-0.4-8.2,2.6L8.6,26.7c-0.4,0.9-0.7,1.8-0.7,2.7c0,0.2-0.1,0.3-0.1,0.5v20.8c0,1.8,1.5,3.3,3.3,3.3
			c1.8,0,3.3-1.5,3.3-3.3V37L20,51.3c0.7,1.7,2.6,2.6,4.3,1.9c1.7-0.7,2.6-2.6,1.9-4.3L19.7,31.8z"/>
		<circle class="st1" cx="25.6" cy="8.2" r="4.9"/>
	</g>
</g>
</svg>
