<?xml version="1.0" encoding="iso-8859-1"?>
<!-- Generator: Adobe Illustrator 16.0.0, SVG Export Plug-In . SVG Version: 6.00 Build 0)  -->
<!DOCTYPE svg PUBLIC "-//W3C//DTD SVG 1.1//EN" "http://www.w3.org/Graphics/SVG/1.1/DTD/svg11.dtd">
<svg xmlns="http://www.w3.org/2000/svg" xmlns:xlink="http://www.w3.org/1999/xlink" version="1.1" id="Capa_1" x="0px" y="0px" width="512px" height="512px" viewBox="0 0 570.562 570.562" style="enable-background:new 0 0 570.562 570.562;" xml:space="preserve">
<g>
	<path d="M447.844,57.375H418.2c-5.164,0-9.882-3.188-11.794-8.032L394.23,22.504C388.046,8.797,374.403,0,359.423,0h-65.408   c-14.981,0-28.624,8.797-34.807,22.504l-12.176,26.839c-1.913,4.845-6.63,8.032-11.794,8.032h-32.576   c-2.167,0-4.144-1.084-5.355-2.869l-7.076-10.583c-2.359-3.57-6.311-5.674-10.583-5.674H155.04c-4.271,0-8.224,2.104-10.583,5.674   l-7.076,10.583c-1.211,1.785-3.188,2.869-5.355,2.869h-9.308c-24.671,0-44.625,19.954-44.625,44.625v223.125   c0,24.671,19.954,44.625,44.625,44.625h325.125c24.671,0,44.625-19.954,44.625-44.625V102   C492.469,77.329,472.515,57.375,447.844,57.375z M208.781,133.875c-8.797,0-15.938-7.14-15.938-15.938S199.984,102,208.781,102   s15.938,7.14,15.938,15.938S217.579,133.875,208.781,133.875z M323.531,312.375c-54.57,0-98.812-44.243-98.812-98.812   s44.243-98.812,98.812-98.812c54.57,0,98.812,44.243,98.812,98.812S378.102,312.375,323.531,312.375z M243.844,219.938   c-3.525,0-6.375-2.85-6.375-6.375c0-47.456,38.607-86.062,86.062-86.062c3.525,0,6.375,2.85,6.375,6.375s-2.85,6.375-6.375,6.375   c-40.424,0-73.312,32.889-73.312,73.312C250.219,217.088,247.369,219.938,243.844,219.938z M426.736,566.374   c-3.061,2.805-6.917,4.188-10.761,4.188c-4.316,0-8.613-1.734-11.756-5.17L301.219,453.026V535.5   c0,8.804-7.134,15.938-15.938,15.938s-15.938-7.134-15.938-15.938v-82.474L166.343,565.393c-3.143,3.43-7.439,5.17-11.755,5.17   c-3.851,0-7.701-1.384-10.761-4.188c-6.49-5.948-6.923-16.033-0.975-22.517l118.683-129.482h-26.832   c-2.238,0-4.316-1.173-5.463-3.099l-11.475-19.125c-2.55-4.252,0.51-9.651,5.463-9.651h124.109c4.953,0,8.013,5.406,5.463,9.651   l-11.475,19.125c-1.147,1.926-3.227,3.099-5.464,3.099h-26.832l118.689,129.482C433.659,550.341,433.226,560.426,426.736,566.374z" fill="#FFFFFF"/>
</g>
<g>
</g>
<g>
</g>
<g>
</g>
<g>
</g>
<g>
</g>
<g>
</g>
<g>
</g>
<g>
</g>
<g>
</g>
<g>
</g>
<g>
</g>
<g>
</g>
<g>
</g>
<g>
</g>
<g>
</g>
</svg>
