<?xml version="1.0" encoding="iso-8859-1"?>
<!-- Generator: Adobe Illustrator 19.0.0, SVG Export Plug-In . SVG Version: 6.00 Build 0)  -->
<svg version="1.1" id="Capa_1" xmlns="http://www.w3.org/2000/svg" xmlns:xlink="http://www.w3.org/1999/xlink" x="0px" y="0px"
	 viewBox="0 0 512 512" style="enable-background:new 0 0 512 512;" xml:space="preserve">
<path style="fill:#2AB69D;" d="M348.328,276.984H163.672c-37.082,0-67.148,30.065-67.148,67.148v50.361h58.754v109.115h201.443
	V394.492h58.754v-50.361C415.475,307.049,385.41,276.984,348.328,276.984z"/>
<path style="fill:#FEE8AF;" d="M163.672,125.902v58.754c0.025,38.014,23.351,72.116,58.754,85.94v23.174
	c0,18.541,15.033,33.574,33.574,33.574s33.574-15.033,33.574-33.574v-23.174c35.404-13.824,58.729-47.927,58.754-85.94v-58.754
	L163.672,125.902L163.672,125.902z"/>
<g>
	<path style="fill:#42210B;" d="M239.213,184.656h-16.787v-8.393c0-4.633-3.76-8.393-8.393-8.393s-8.393,3.76-8.393,8.393v8.393
		h-16.787v-8.393c0-13.908,11.272-25.18,25.18-25.18s25.18,11.272,25.18,25.18V184.656z"/>
	<path style="fill:#42210B;" d="M323.148,184.656h-16.787v-8.393c0-4.633-3.76-8.393-8.393-8.393c-4.633,0-8.393,3.76-8.393,8.393
		v8.393h-16.787v-8.393c0-13.908,11.272-25.18,25.18-25.18c13.908,0,25.18,11.272,25.18,25.18V184.656z"/>
</g>
<path style="fill:#E65848;" d="M230.82,209.836h50.361v8.393c0,13.908-11.272,25.18-25.18,25.18l0,0
	c-13.908,0-25.18-11.272-25.18-25.18V209.836z"/>
<g>
	<path style="fill:#FEE8AF;" d="M163.672,159.475h-16.787c-9.275,0-16.787,7.512-16.787,16.787l0,0
		c0,9.275,7.512,16.787,16.787,16.787h16.787V159.475z"/>
	<path style="fill:#FEE8AF;" d="M348.328,159.475h16.787c9.275,0,16.787,7.512,16.787,16.787l0,0
		c0,9.275-7.512,16.787-16.787,16.787h-16.787V159.475z"/>
</g>
<path style="fill:#E65848;" d="M146.885,92.328h218.23c9.275,0,16.787,7.512,16.787,16.787l0,0c0,9.275-7.512,16.787-16.787,16.787
	h-218.23c-9.275,0-16.787-7.512-16.787-16.787l0,0C130.098,99.84,137.61,92.328,146.885,92.328z"/>
<path style="fill:#FDC536;" d="M163.672,92.328L163.672,92.328c0-46.357,37.577-83.934,83.934-83.934h25.18
	c46.357,0,83.934,37.577,83.934,83.934H163.672z"/>
<rect x="188.852" y="360.918" style="fill:#E65848;" width="134.295" height="100.721"/>
<g>
	<circle style="fill:#FDC536;" cx="272.787" cy="411.279" r="25.18"/>
	<rect x="214.033" y="386.098" style="fill:#FDC536;" width="16.787" height="16.787"/>
</g>
<g>
	<rect x="356.721" y="394.492" style="fill:#FEE8AF;" width="41.967" height="109.115"/>
	<rect x="113.311" y="394.492" style="fill:#FEE8AF;" width="41.967" height="109.115"/>
</g>
<path d="M222.426,184.656h16.787v-8.393c0-13.908-11.272-25.18-25.18-25.18s-25.18,11.272-25.18,25.18v8.393h16.787v-8.393
	c0-4.633,3.76-8.393,8.393-8.393s8.393,3.76,8.393,8.393V184.656z"/>
<path d="M289.574,176.262c0-4.633,3.76-8.393,8.393-8.393c4.633,0,8.393,3.76,8.393,8.393v8.393h16.787v-8.393
	c0-13.908-11.272-25.18-25.18-25.18c-13.908,0-25.18,11.272-25.18,25.18v8.393h16.787V176.262z"/>
<path d="M289.574,218.229v-16.787h-67.148v16.787c0,18.541,15.033,33.574,33.574,33.574S289.574,236.771,289.574,218.229z
	 M239.213,218.229h33.574c0,9.275-7.512,16.787-16.787,16.787C246.725,235.016,239.213,227.504,239.213,218.229z"/>
<path d="M272.787,386.098c-13.908,0-25.18,11.272-25.18,25.18c0,13.908,11.272,25.18,25.18,25.18s25.18-11.272,25.18-25.18
	C297.967,397.371,286.695,386.098,272.787,386.098z M272.787,419.672c-4.633,0-8.393-3.76-8.393-8.393
	c0-4.633,3.76-8.393,8.393-8.393c4.633,0,8.393,3.76,8.393,8.393C281.18,415.912,277.42,419.672,272.787,419.672z"/>
<rect x="214.033" y="386.098" width="16.787" height="16.787"/>
<path d="M348.328,268.59h-36.772c23.199-15.394,38.996-39.701,43.646-67.148h9.913c13.908,0,25.18-11.272,25.18-25.18
	s-11.272-25.18-25.18-25.18h-8.393v-16.787h8.393c13.908,0,25.18-11.272,25.18-25.18s-11.272-25.18-25.18-25.18h-0.428
	C360.305,36.428,320.495,0.067,272.787,0h-25.18c-47.708,0.067-87.518,36.428-91.9,83.934h-8.822
	c-13.908,0-25.18,11.272-25.18,25.18s11.272,25.18,25.18,25.18h8.393v16.787h-8.393c-13.908,0-25.18,11.272-25.18,25.18
	s11.272,25.18,25.18,25.18h9.913c4.65,27.447,20.446,51.754,43.646,67.148h-36.772c-41.699,0.05-75.491,33.842-75.541,75.541v58.754
	h16.787V512h302.164V402.885h16.787v-58.754C423.818,302.433,390.026,268.641,348.328,268.59z M281.18,285.377v8.393
	c0,13.908-11.272,25.18-25.18,25.18c-13.908,0-25.18-11.272-25.18-25.18v-8.393H281.18z M365.115,167.869
	c4.633,0,8.393,3.76,8.393,8.393s-3.76,8.393-8.393,8.393h-8.393v-16.787H365.115z M247.607,16.787h25.18
	c38.45,0.05,70.757,28.941,75.071,67.148H172.536C176.85,45.727,209.156,16.837,247.607,16.787z M138.492,109.115
	c0-4.633,3.76-8.393,8.393-8.393h218.23c4.633,0,8.393,3.76,8.393,8.393s-3.76,8.393-8.393,8.393h-218.23
	C142.252,117.508,138.492,113.748,138.492,109.115z M146.885,184.656c-4.633,0-8.393-3.76-8.393-8.393s3.76-8.393,8.393-8.393h8.393
	v16.787H146.885z M172.066,184.656v-50.361h167.869v50.361c0,46.357-37.577,83.934-83.934,83.934S172.066,231.013,172.066,184.656z
	 M214.033,285.377v8.393c0,23.174,18.793,41.967,41.967,41.967s41.967-18.793,41.967-41.967v-8.393h16.787v67.148H197.246v-67.148
	H214.033z M197.246,369.311h117.508v83.934H197.246V369.311z M146.885,495.213h-25.18v-92.328h25.18V495.213z M390.295,495.213
	h-25.18v-92.328h25.18V495.213z M407.082,386.098h-41.967v-33.574h-16.787v142.689H163.672V352.525h-16.787v33.574h-41.967v-41.967
	c0.034-32.432,26.322-58.721,58.754-58.754h16.787v184.656h151.082V285.377h16.787c32.432,0.034,58.721,26.322,58.754,58.754
	V386.098z"/>
<g>
</g>
<g>
</g>
<g>
</g>
<g>
</g>
<g>
</g>
<g>
</g>
<g>
</g>
<g>
</g>
<g>
</g>
<g>
</g>
<g>
</g>
<g>
</g>
<g>
</g>
<g>
</g>
<g>
</g>
</svg>
