<?xml version="1.0" encoding="utf-8"?>
<!-- Generator: Adobe Illustrator 17.0.0, SVG Export Plug-In . SVG Version: 6.00 Build 0)  -->
<!DOCTYPE svg PUBLIC "-//W3C//DTD SVG 1.1//EN" "http://www.w3.org/Graphics/SVG/1.1/DTD/svg11.dtd">
<svg version="1.1" id="Layer_1" xmlns="http://www.w3.org/2000/svg" xmlns:xlink="http://www.w3.org/1999/xlink" x="0px" y="0px"
	 width="505px" height="300px" viewBox="0 0 505 300" enable-background="new 0 0 505 300" xml:space="preserve">
<g>
	<path fill="#FFFFFF" d="M114.7,76.395c-1.406,0-2.812-0.002-4.219,0c-22.147,0.043-44.304-0.32-66.437,0.251
		C23.535,77.175,5.492,91.898,3.888,111.553c-1.895,23.224-1.302,46.67-1.293,70.02c0.002,6.418,3.991,9.688,9.049,9.461
		c5.253-0.235,8.235-4.007,8.39-10.66c0.045-1.933,0.017-3.867,0.019-5.8c0.02-18.28-0.09-36.562,0.111-54.84
		c0.109-9.891,4.297-18.132,13.479-22.058c5.571-2.382,12.176-3.201,18.325-3.238c43.59-0.263,87.187,0.196,130.772-0.326
		c15.489-0.185,30.215-4.321,41.63-16.069c8.17-8.409,11.89-19.303,16.758-29.583c8.919-18.837,23.279-30.104,44.673-30.509
		c17.747-0.336,35.505-0.151,53.258-0.033c13.646,0.09,25.904,4.427,34.437,15.249c5.567,7.06,9.823,15.331,13.685,23.522
		c9.041,19.177,22.873,32.296,44.144,36.055c7.532,1.331,15.365,0.864,23.014,1.659c4.974,0.517,10.409,0.782,14.688,2.995
		c10.954,5.664,14.777,15.86,14.809,27.7c0.047,17.225,0.001,34.451,0.041,51.676c0.005,2.274,0.14,4.568,0.463,6.817
		c0.703,4.894,3.606,7.523,8.583,7.498c4.571-0.024,8.12-3.418,8.14-8.61c0.083-22.318,0.469-44.659-0.38-66.948
		c-0.606-15.911-14.678-32.782-29.947-36.443c-8.565-2.054-17.652-2.321-26.529-2.596c-15.606-0.483-28.437-5.785-36.717-19.574
		c-2.969-4.944-5.633-10.145-7.79-15.489c-9.956-24.659-33.637-41.063-60.197-41.222c-18.28-0.11-36.579-0.5-54.832,0.206
		c-7.887,0.305-16.157,1.909-23.423,4.924c-19.331,8.022-31.663,22.924-39.16,42.402C214.11,68.47,204.742,75.98,180.087,76.33
		C158.295,76.639,136.496,76.394,114.7,76.395z M312.035,76.024c0-0.009,0-0.017,0-0.026c11.243,0,22.493,0.258,33.726-0.085
		c8.338-0.255,14.944-4.248,18.345-12.013c3.042-6.946,1.93-13.724-2.869-19.786c-4.658-5.886-11.178-6.794-18.003-6.806
		c-20.729-0.037-41.458-0.044-62.187,0.021c-2.795,0.009-5.622,0.314-8.377,0.806c-9.601,1.715-16.459,13.251-13.542,22.595
		c3.052,9.777,9.917,15.101,20.233,15.257C290.25,76.152,301.143,76.024,312.035,76.024z M313.082,95.219
		c-14.604,0.489-28.431,3.516-41.27,10.055c-11.572,5.894-21.174,14.328-28.901,24.802c-3.275,4.439-2.963,9.841,0.549,12.849
		c3.987,3.414,8.063,3.016,12.566-1.37c1.377-1.341,2.522-2.923,3.758-4.406c20.427-24.519,59.896-31.697,87.112-15.079
		c7.788,4.755,14.257,11.71,21.172,17.835c3.454,3.06,6.602,6.812,11.831,4.599c5.699-2.412,6.949-9.295,2.707-14.673
		C364.841,107.303,341.273,96.414,313.082,95.219z M115.333,67.511c0-0.01,0-0.019,0-0.029c10.538,0,21.078,0.137,31.612-0.051
		c6.397-0.114,10.229-2.903,11.848-7.868c1.926-5.907,0.785-11.641-4.195-15.053c-3.939-2.698-8.536-5.261-13.144-6.008
		c-17.255-2.798-34.665-2.691-51.946-0.037c-4.004,0.615-8.052,2.541-11.513,4.751c-6.165,3.936-7.941,9.337-5.981,15.354
		c1.98,6.08,5.829,8.807,13.287,8.908C95.309,67.612,105.322,67.511,115.333,67.511z M69.131,107.371
		c-10.645-0.118-19.768,8.666-19.897,19.158c-0.129,10.501,8.752,19.4,19.504,19.545c10.284,0.139,18.283-8.014,18.529-18.885
		C87.516,116.173,79.567,107.487,69.131,107.371z"/>
	<path fill="#FFFFFF" d="M114.7,76.395c21.796-0.001,43.595,0.244,65.387-0.065c24.655-0.35,34.023-7.86,42.001-28.591
		c7.496-19.478,19.829-34.38,39.16-42.402c7.266-3.015,15.536-4.619,23.423-4.924c18.253-0.706,36.553-0.316,54.832-0.206
		c26.559,0.16,50.241,16.564,60.197,41.222c2.158,5.344,4.822,10.545,7.79,15.489c8.28,13.789,21.111,19.091,36.717,19.574
		c8.877,0.275,17.964,0.542,26.529,2.596c15.27,3.661,29.341,20.532,29.947,36.443c0.849,22.29,0.463,44.63,0.38,66.948
		c-0.019,5.192-3.568,8.586-8.14,8.61c-4.977,0.026-7.88-2.603-8.583-7.498c-0.323-2.249-0.458-4.543-0.463-6.817
		c-0.04-17.225,0.006-34.451-0.041-51.676c-0.032-11.841-3.855-22.036-14.809-27.7c-4.279-2.213-9.714-2.478-14.688-2.995
		c-7.65-0.795-15.482-0.328-23.014-1.659c-21.271-3.76-35.104-16.878-44.144-36.055c-3.862-8.191-8.118-16.462-13.685-23.522
		c-8.533-10.822-20.792-15.159-34.437-15.249c-17.752-0.117-35.511-0.303-53.258,0.033c-21.395,0.406-35.755,11.673-44.673,30.509
		c-4.868,10.28-8.588,21.174-16.758,29.583c-11.415,11.748-26.141,15.884-41.63,16.069c-43.586,0.521-87.182,0.063-130.772,0.326
		c-6.149,0.037-12.754,0.856-18.325,3.238c-9.182,3.926-13.371,12.167-13.479,22.058c-0.201,18.278-0.091,36.56-0.111,54.84
		c-0.002,1.933,0.026,3.868-0.019,5.8c-0.156,6.653-3.137,10.425-8.39,10.66c-5.058,0.227-9.046-3.044-9.049-9.461
		c-0.009-23.35-0.602-46.795,1.293-70.02c1.604-19.655,19.647-34.378,40.156-34.907c22.133-0.571,44.29-0.207,66.437-0.251
		C111.888,76.393,113.294,76.395,114.7,76.395z"/>
	<path fill="#FFFFFF" d="M312.035,76.024c-10.892,0-21.785,0.127-32.674-0.037c-10.316-0.156-17.18-5.48-20.233-15.257
		c-2.917-9.344,3.941-20.88,13.542-22.595c2.754-0.492,5.582-0.797,8.377-0.806c20.729-0.066,41.458-0.058,62.187-0.021
		c6.825,0.012,13.345,0.92,18.003,6.806c4.798,6.063,5.91,12.84,2.869,19.786c-3.4,7.765-10.007,11.758-18.345,12.013
		c-11.232,0.343-22.483,0.085-33.726,0.085C312.035,76.007,312.035,76.016,312.035,76.024z"/>
	<path fill="#FFFFFF" d="M313.082,95.219c28.19,1.195,51.759,12.084,69.524,34.611c4.242,5.379,2.992,12.261-2.707,14.673
		c-5.229,2.213-8.376-1.539-11.831-4.599c-6.915-6.125-13.385-13.08-21.172-17.835c-27.216-16.618-66.685-9.439-87.112,15.079
		c-1.236,1.484-2.381,3.065-3.758,4.406c-4.503,4.385-8.579,4.784-12.566,1.37c-3.513-3.008-3.824-8.41-0.549-12.849
		c7.727-10.474,17.329-18.909,28.901-24.802C284.651,98.735,298.478,95.708,313.082,95.219z"/>
	<path fill="#FFFFFF" d="M115.333,67.511c-10.011,0-20.023,0.101-30.033-0.033c-7.458-0.1-11.307-2.828-13.287-8.908
		c-1.96-6.017-0.184-11.418,5.981-15.354c3.461-2.21,7.509-4.136,11.513-4.751c17.281-2.653,34.69-2.761,51.946,0.037
		c4.609,0.747,9.206,3.31,13.144,6.008c4.98,3.412,6.121,9.146,4.195,15.053c-1.619,4.964-5.451,7.754-11.848,7.868
		c-10.534,0.187-21.075,0.051-31.612,0.051C115.333,67.491,115.333,67.501,115.333,67.511z"/>
	<path fill="#FFFFFF" d="M69.131,107.371c10.436,0.116,18.385,8.803,18.136,19.818c-0.246,10.871-8.245,19.024-18.529,18.885
		c-10.752-0.145-19.633-9.045-19.504-19.545C49.363,116.037,58.486,107.252,69.131,107.371z"/>
</g>
<g>
	<path fill="#FFFFFF" d="M31.446,238.552c0,6.792-1.61,11.927-4.828,15.405c-3.219,3.479-7.947,5.218-14.184,5.218H3.678v-40.472
		h9.881c5.837,0,10.277,1.688,13.321,5.066C29.923,227.147,31.446,232.074,31.446,238.552z M28.669,238.662
		c0-5.795-1.33-10.155-3.99-13.08s-6.566-4.388-11.72-4.388H6.23v35.489h6.054C23.207,256.684,28.669,250.677,28.669,238.662z"/>
	<path fill="#FFFFFF" d="M59.358,244.088c0,4.909-1.076,8.743-3.227,11.502s-5.12,4.139-8.906,4.139
		c-2.385,0-4.486-0.637-6.304-1.91s-3.21-3.101-4.178-5.481c-0.967-2.381-1.451-5.13-1.451-8.25c0-4.909,1.076-8.734,3.227-11.475
		c2.151-2.74,5.103-4.11,8.855-4.11c3.735,0,6.667,1.389,8.793,4.166C58.295,235.447,59.358,239.253,59.358,244.088z
		 M37.894,244.088c0,4.134,0.821,7.359,2.464,9.675s3.965,3.474,6.967,3.474s5.324-1.158,6.967-3.474
		c1.643-2.315,2.464-5.541,2.464-9.675c0-4.152-0.83-7.373-2.489-9.661c-1.66-2.288-3.99-3.433-6.992-3.433s-5.316,1.14-6.942,3.419
		S37.894,239.918,37.894,244.088z"/>
	<path fill="#FFFFFF" d="M83.493,259.175v-19.516c0-3.026-0.575-5.227-1.726-6.602s-2.936-2.062-5.354-2.062
		c-3.252,0-5.633,0.909-7.142,2.727c-1.51,1.818-2.264,4.766-2.264,8.845v16.609H64.53v-30.091h2.102l0.475,4.125h0.15
		c1.767-3.137,4.911-4.706,9.431-4.706c6.17,0,9.256,3.664,9.256,10.99v19.682h-2.451V259.175z"/>
	<path fill="#FFFFFF" d="M102.35,228.503c1.967,0,3.668,0.397,5.103,1.19c1.434,0.794,2.718,2.15,3.853,4.069h0.15
		c-0.1-2.325-0.15-4.604-0.15-6.837v-10.824h2.451v43.074h-1.626l-0.625-4.595h-0.2c-2.068,3.433-5.037,5.149-8.906,5.149
		c-3.752,0-6.621-1.292-8.605-3.875c-1.985-2.583-2.977-6.349-2.977-11.294c0-5.205,0.983-9.181,2.952-11.931
		C95.737,229.878,98.597,228.503,102.35,228.503z M102.35,230.995c-2.969,0-5.2,1.153-6.692,3.46
		c-1.493,2.307-2.239,5.657-2.239,10.048c0,8.526,2.993,12.79,8.98,12.79c3.068,0,5.32-0.987,6.754-2.962s2.151-5.232,2.151-9.772
		v-0.471c0-4.651-0.705-7.996-2.114-10.035C107.782,232.015,105.501,230.995,102.35,230.995z"/>
	<path fill="#FFFFFF" d="M131.512,259.729c-3.953,0-7.034-1.347-9.243-4.042c-2.21-2.694-3.314-6.468-3.314-11.322
		c0-4.798,1.067-8.641,3.202-11.53c2.135-2.888,5.012-4.332,8.63-4.332c3.202,0,5.729,1.236,7.58,3.709
		c1.851,2.474,2.776,5.832,2.776,10.077v2.214h-19.587c0.033,4.134,0.904,7.29,2.614,9.468c1.709,2.178,4.156,3.266,7.342,3.266
		c1.551,0,2.915-0.12,4.09-0.36c1.175-0.239,2.664-0.756,4.465-1.55v2.491c-1.534,0.738-2.952,1.241-4.252,1.509
		C134.514,259.595,133.08,259.729,131.512,259.729z M130.787,230.939c-2.618,0-4.72,0.955-6.304,2.865s-2.51,4.665-2.777,8.263
		h16.811c0-3.488-0.684-6.214-2.051-8.18C135.098,231.922,133.205,230.939,130.787,230.939z"/>
	<path fill="#FFFFFF" d="M165.253,259.175v-19.516c0-3.026-0.575-5.227-1.726-6.602s-2.936-2.062-5.354-2.062
		c-3.252,0-5.633,0.909-7.142,2.727c-1.51,1.818-2.264,4.766-2.264,8.845v16.609h-2.477v-30.091h2.102l0.475,4.125h0.15
		c1.767-3.137,4.911-4.706,9.431-4.706c6.17,0,9.256,3.664,9.256,10.99v19.682h-2.451V259.175z"/>
	<path fill="#FFFFFF" d="M176.58,245.971l13.884-16.886h3.001l-10.707,12.845l11.632,17.246h-2.977l-10.331-15.198l-4.453,4.485
		v10.713h-2.477v-43.074h2.477v21.592l-0.175,8.277L176.58,245.971L176.58,245.971z"/>
	<path fill="#FFFFFF" d="M219.077,244.088c0,4.909-1.076,8.743-3.227,11.502s-5.12,4.139-8.906,4.139
		c-2.385,0-4.486-0.637-6.304-1.91s-3.21-3.101-4.178-5.481c-0.967-2.381-1.451-5.13-1.451-8.25c0-4.909,1.076-8.734,3.227-11.475
		c2.151-2.74,5.103-4.11,8.855-4.11c3.735,0,6.667,1.389,8.793,4.166C218.014,235.447,219.077,239.253,219.077,244.088z
		 M197.613,244.088c0,4.134,0.821,7.359,2.464,9.675s3.965,3.474,6.967,3.474s5.324-1.158,6.967-3.474
		c1.643-2.315,2.464-5.541,2.464-9.675c0-4.152-0.83-7.373-2.489-9.661c-1.66-2.288-3.99-3.433-6.992-3.433s-5.316,1.14-6.942,3.419
		S197.613,239.918,197.613,244.088z"/>
	<path fill="#FFFFFF" d="M257.84,230.33c0,3.913-1.201,6.912-3.602,8.997c-2.401,2.085-5.804,3.128-10.207,3.128h-5.653v16.72
		h-2.552v-40.472h8.956C253.488,218.703,257.84,222.579,257.84,230.33z M238.378,240.019h5.028c4.119,0,7.096-0.752,8.931-2.256
		c1.834-1.504,2.752-3.945,2.752-7.322c0-3.119-0.868-5.43-2.602-6.935c-1.735-1.504-4.42-2.256-8.055-2.256h-6.054V240.019z"/>
	<path fill="#FFFFFF" d="M281.775,259.175v-19.516c0-3.026-0.575-5.227-1.726-6.602s-2.936-2.062-5.354-2.062
		c-3.252,0-5.633,0.909-7.142,2.727c-1.51,1.818-2.264,4.766-2.264,8.845v16.609h-2.477v-43.074h2.477v13.703l-0.125,3.848h0.175
		c1.017-1.809,2.301-3.119,3.852-3.931s3.478-1.218,5.779-1.218c6.17,0,9.256,3.664,9.256,10.99v19.682h-2.451V259.175z"/>
	<path fill="#FFFFFF" d="M313.164,244.088c0,4.909-1.076,8.743-3.227,11.502s-5.12,4.139-8.906,4.139
		c-2.385,0-4.486-0.637-6.304-1.91s-3.21-3.101-4.178-5.481c-0.967-2.381-1.451-5.13-1.451-8.25c0-4.909,1.076-8.734,3.227-11.475
		c2.151-2.74,5.103-4.11,8.855-4.11c3.735,0,6.667,1.389,8.793,4.166C312.101,235.447,313.164,239.253,313.164,244.088z
		 M291.701,244.088c0,4.134,0.821,7.359,2.464,9.675c1.643,2.316,3.965,3.474,6.967,3.474s5.324-1.158,6.967-3.474
		c1.643-2.315,2.464-5.541,2.464-9.675c0-4.152-0.83-7.373-2.489-9.661c-1.66-2.288-3.99-3.433-6.992-3.433s-5.316,1.14-6.942,3.419
		S291.701,239.918,291.701,244.088z"/>
	<path fill="#FFFFFF" d="M325.517,257.293c1.567,0,2.935-0.147,4.103-0.443v2.214c-1.201,0.443-2.585,0.665-4.153,0.665
		c-2.401,0-4.173-0.71-5.315-2.132c-1.143-1.421-1.714-3.654-1.714-6.699v-19.433h-4.027v-1.606l4.027-1.246l1.251-6.81h1.276v7.28
		h7.98v2.381h-7.98v19.045c0,2.307,0.366,4.014,1.101,5.121C322.798,256.739,323.949,257.293,325.517,257.293z"/>
	<path fill="#FFFFFF" d="M355.631,244.088c0,4.909-1.076,8.743-3.227,11.502s-5.12,4.139-8.906,4.139
		c-2.385,0-4.486-0.637-6.304-1.91s-3.21-3.101-4.178-5.481c-0.967-2.381-1.451-5.13-1.451-8.25c0-4.909,1.076-8.734,3.227-11.475
		c2.151-2.74,5.103-4.11,8.855-4.11c3.735,0,6.667,1.389,8.793,4.166C354.568,235.447,355.631,239.253,355.631,244.088z
		 M334.167,244.088c0,4.134,0.821,7.359,2.464,9.675c1.643,2.316,3.965,3.474,6.967,3.474s5.324-1.158,6.967-3.474
		c1.643-2.315,2.464-5.541,2.464-9.675c0-4.152-0.83-7.373-2.489-9.661c-1.66-2.288-3.99-3.433-6.992-3.433s-5.316,1.14-6.942,3.419
		S334.167,239.918,334.167,244.088z"/>
	<path fill="#FFFFFF" d="M382.017,229.084v1.91l-5.628,0.388c1.501,2.067,2.251,4.337,2.251,6.81c0,2.897-0.872,5.246-2.614,7.045
		s-4.082,2.699-7.017,2.699c-1.234,0-2.101-0.055-2.602-0.166c-0.984,0.572-1.734,1.246-2.251,2.021s-0.775,1.596-0.775,2.464
		c0,0.959,0.329,1.661,0.988,2.104c0.659,0.443,1.764,0.665,3.314,0.665h4.753c2.952,0,5.211,0.66,6.779,1.979
		c1.567,1.319,2.352,3.271,2.352,5.854c0,3.174-1.163,5.624-3.49,7.35s-5.641,2.588-9.944,2.588c-3.419,0-6.066-0.729-7.942-2.187
		s-2.814-3.488-2.814-6.09c0-2.067,0.58-3.784,1.739-5.149c1.159-1.366,2.73-2.298,4.715-2.796
		c-0.817-0.388-1.472-0.937-1.963-1.647c-0.492-0.71-0.738-1.527-0.738-2.45c0-2.011,1.159-3.783,3.478-5.315
		c-1.585-0.72-2.819-1.85-3.703-3.391s-1.326-3.308-1.326-5.301c0-3.008,0.863-5.421,2.589-7.239
		c1.726-1.817,4.057-2.727,6.992-2.727c1.784,0,3.168,0.193,4.152,0.581L382.017,229.084L382.017,229.084z M360.003,264.269
		c0,4.134,2.777,6.201,8.33,6.201c7.138,0,10.707-2.519,10.707-7.557c0-1.809-0.559-3.119-1.676-3.931
		c-1.118-0.812-2.927-1.218-5.428-1.218h-4.453C362.496,257.764,360.003,259.932,360.003,264.269z M362.079,238.469
		c0,2.325,0.638,4.129,1.914,5.412s2.981,1.924,5.116,1.924c2.268,0,4.006-0.637,5.216-1.91c1.209-1.273,1.813-3.119,1.813-5.537
		c0-2.565-0.621-4.489-1.863-5.771c-1.243-1.283-2.981-1.924-5.216-1.924c-2.168,0-3.874,0.688-5.116,2.062
		C362.701,234.099,362.079,236.015,362.079,238.469z"/>
	<path fill="#FFFFFF" d="M395.946,228.503c1.15,0,2.384,0.129,3.702,0.387l-0.476,2.63c-1.134-0.313-2.31-0.471-3.527-0.471
		c-2.318,0-4.22,1.089-5.704,3.267s-2.227,4.928-2.227,8.25v16.609h-2.477v-30.091h2.102l0.25,5.426h0.175
		c1.117-2.214,2.31-3.769,3.577-4.665C392.61,228.951,394.144,228.503,395.946,228.503z"/>
	<path fill="#FFFFFF" d="M419.33,259.175l-0.625-4.761h-0.2c-1.368,1.938-2.773,3.308-4.215,4.111
		c-1.443,0.803-3.148,1.204-5.116,1.204c-2.668,0-4.745-0.756-6.229-2.27c-1.484-1.513-2.226-3.608-2.226-6.284
		c0-2.935,1.104-5.213,3.314-6.838c2.209-1.624,5.407-2.482,9.593-2.574l5.179-0.166v-1.993c0-2.86-0.525-5.02-1.576-6.478
		s-2.744-2.187-5.078-2.187c-2.519,0-5.128,0.775-7.83,2.325l-0.925-2.381c2.985-1.55,5.937-2.325,8.855-2.325
		c2.985,0,5.216,0.858,6.691,2.574c1.476,1.716,2.214,4.393,2.214,8.028v20.014L419.33,259.175L419.33,259.175z M409.324,257.237
		c2.901,0,5.19-0.917,6.867-2.754c1.676-1.836,2.514-4.387,2.514-7.654v-2.962l-4.753,0.222c-3.819,0.203-6.542,0.863-8.168,1.979
		s-2.439,2.856-2.439,5.218c0,1.882,0.521,3.345,1.563,4.388C405.951,256.716,407.423,257.237,409.324,257.237z"/>
	<path fill="#FFFFFF" d="M439.237,259.729c-4.186,0-7.238-1.734-9.156-5.205h-0.175l0.075,2.326c0.066,1.366,0.1,2.86,0.1,4.484
		v11.46h-2.477v-43.71h2.102l0.475,4.291h0.15c1.867-3.248,4.853-4.872,8.956-4.872c3.668,0,6.466,1.333,8.393,4
		c1.926,2.667,2.889,6.547,2.889,11.64c0,4.946-1.013,8.78-3.039,11.502C445.504,258.368,442.74,259.729,439.237,259.729z
		 M439.187,257.293c2.785,0,4.94-1.144,6.466-3.433c1.526-2.288,2.289-5.49,2.289-9.606c0-8.84-2.885-13.26-8.655-13.26
		c-3.169,0-5.496,0.964-6.979,2.893c-1.484,1.929-2.227,5.071-2.227,9.426v0.886c0,4.706,0.713,8.065,2.139,10.076
		C433.646,256.287,435.969,257.293,439.187,257.293z"/>
	<path fill="#FFFFFF" d="M474.704,259.175v-19.516c0-3.026-0.575-5.227-1.726-6.602s-2.936-2.062-5.354-2.062
		c-3.252,0-5.633,0.909-7.142,2.727c-1.51,1.818-2.264,4.766-2.264,8.845v16.609h-2.477v-43.074h2.477v13.703l-0.125,3.848h0.175
		c1.017-1.809,2.301-3.119,3.852-3.931s3.478-1.218,5.779-1.218c6.17,0,9.256,3.664,9.256,10.99v19.682h-2.451V259.175z"/>
	<path fill="#FFFFFF" d="M479.052,229.084h2.552l5.753,16.886c1.751,5.186,2.86,8.683,3.327,10.492h0.15
		c0.701-2.381,1.843-5.933,3.427-10.658l5.753-16.72h2.552l-12.183,34.963c-0.984,2.842-1.81,4.761-2.477,5.758
		s-1.447,1.744-2.339,2.243c-0.893,0.498-1.972,0.747-3.24,0.747c-0.95,0-2.01-0.194-3.177-0.581v-2.381
		c0.967,0.295,2.009,0.443,3.127,0.443c0.851,0,1.601-0.221,2.251-0.665c0.65-0.443,1.238-1.13,1.764-2.062
		c0.525-0.932,1.134-2.409,1.826-4.429c0.692-2.021,1.138-3.336,1.338-3.945L479.052,229.084z"/>
</g>
<line fill="#FFFFFF" stroke="#FFFFFF" stroke-miterlimit="10" x1="188.124" y1="279.429" x2="316.124" y2="279.429"/>
</svg>
