<?xml version="1.0" encoding="utf-8"?>
<!-- Generator: Adobe Illustrator 17.0.0, SVG Export Plug-In . SVG Version: 6.00 Build 0)  -->
<!DOCTYPE svg PUBLIC "-//W3C//DTD SVG 1.1//EN" "http://www.w3.org/Graphics/SVG/1.1/DTD/svg11.dtd">
<svg version="1.1" id="Layer_1" xmlns="http://www.w3.org/2000/svg" xmlns:xlink="http://www.w3.org/1999/xlink" x="0px" y="0px"
	 width="100px" height="53.13px" viewBox="0 0 100 53.13" enable-background="new 0 0 100 53.13" xml:space="preserve">
<g>
	<path fill="#FFFFFF" d="M23.155,14.879c-0.274,0-0.548,0-0.822,0c-4.313,0.008-8.629-0.062-12.939,0.049
		c-3.994,0.103-7.508,2.971-7.821,6.799c-0.369,4.523-0.254,9.09-0.252,13.637c0,1.25,0.777,1.887,1.762,1.843
		c1.023-0.046,1.604-0.78,1.634-2.076c0.009-0.376,0.003-0.753,0.004-1.13c0.004-3.56-0.018-7.121,0.022-10.681
		c0.021-1.926,0.837-3.531,2.625-4.296c1.085-0.464,2.371-0.623,3.569-0.631c8.49-0.051,16.981,0.038,25.47-0.063
		c3.017-0.036,5.885-0.842,8.108-3.13c1.591-1.638,2.316-3.76,3.264-5.762c1.737-3.669,4.534-5.863,8.701-5.942
		c3.456-0.065,6.915-0.029,10.373-0.006c2.658,0.018,5.045,0.862,6.707,2.97c1.084,1.375,1.913,2.986,2.665,4.581
		c1.761,3.735,4.455,6.29,8.598,7.022c1.467,0.259,2.993,0.168,4.482,0.323c0.969,0.101,2.027,0.152,2.861,0.583
		c2.133,1.103,2.878,3.089,2.884,5.395c0.009,3.355,0,6.71,0.008,10.065c0.001,0.443,0.027,0.89,0.09,1.328
		c0.137,0.953,0.702,1.465,1.672,1.46c0.89-0.005,1.581-0.666,1.585-1.677c0.016-4.347,0.091-8.698-0.074-13.039
		c-0.118-3.099-2.859-6.385-5.833-7.098c-1.668-0.4-3.438-0.452-5.167-0.506c-3.039-0.094-5.538-1.127-7.151-3.812
		c-0.578-0.963-1.097-1.976-1.517-3.017c-1.939-4.803-6.551-7.998-11.724-8.029c-3.56-0.021-7.124-0.097-10.679,0.04
		c-1.536,0.059-3.147,0.372-4.562,0.959c-3.765,1.562-6.167,4.465-7.627,8.258c-1.554,4.038-3.378,5.5-8.18,5.568
		C31.646,14.926,27.4,14.879,23.155,14.879z M61.589,14.807c0-0.002,0-0.003,0-0.005c2.19,0,4.381,0.05,6.569-0.017
		c1.624-0.05,2.911-0.827,3.573-2.34c0.592-1.353,0.376-2.673-0.559-3.854c-0.907-1.146-2.177-1.323-3.506-1.326
		c-4.037-0.007-8.074-0.009-12.112,0.004c-0.544,0.002-1.095,0.061-1.632,0.157c-1.87,0.334-3.206,2.581-2.637,4.401
		c0.594,1.904,1.931,2.941,3.941,2.971C57.346,14.832,59.467,14.807,61.589,14.807z M61.793,18.545
		c-2.844,0.095-5.537,0.685-8.038,1.958c-2.254,1.148-4.124,2.791-5.629,4.831c-0.638,0.865-0.577,1.917,0.107,2.503
		c0.777,0.665,1.57,0.587,2.447-0.267c0.268-0.261,0.491-0.569,0.732-0.858c3.978-4.775,11.666-6.173,16.966-2.937
		c1.517,0.926,2.777,2.281,4.124,3.474c0.673,0.596,1.286,1.327,2.304,0.896c1.11-0.47,1.353-1.81,0.527-2.858
		C71.873,20.899,67.283,18.778,61.793,18.545z M23.279,13.149c0-0.002,0-0.004,0-0.006c2.052,0,4.105,0.027,6.157-0.01
		c1.246-0.022,1.992-0.565,2.308-1.532c0.375-1.15,0.153-2.267-0.817-2.932c-0.767-0.525-1.662-1.025-2.56-1.17
		c-3.361-0.545-6.751-0.524-10.117-0.007c-0.78,0.12-1.568,0.495-2.242,0.925c-1.201,0.767-1.547,1.818-1.165,2.99
		c0.386,1.184,1.135,1.715,2.588,1.735C19.379,13.168,21.329,13.149,23.279,13.149z M14.28,20.912
		c-2.073-0.023-3.85,1.688-3.875,3.731c-0.025,2.045,1.705,3.778,3.799,3.807c2.003,0.027,3.561-1.561,3.609-3.678
		C17.861,22.626,16.313,20.934,14.28,20.912z"/>
	<path fill="#FFFFFF" d="M23.155,14.879c4.245,0,8.491,0.048,12.735-0.013c4.802-0.068,6.626-1.531,8.18-5.568
		c1.46-3.794,3.862-6.696,7.627-8.258c1.415-0.587,3.026-0.9,4.562-0.959c3.555-0.138,7.119-0.062,10.679-0.04
		c5.173,0.031,9.785,3.226,11.724,8.029c0.42,1.041,0.939,2.054,1.517,3.017c1.613,2.686,4.112,3.718,7.151,3.812
		c1.729,0.054,3.499,0.106,5.167,0.506c2.974,0.713,5.715,3.999,5.833,7.098c0.165,4.341,0.09,8.692,0.074,13.039
		c-0.004,1.011-0.695,1.672-1.585,1.677c-0.969,0.005-1.535-0.507-1.672-1.46c-0.063-0.438-0.089-0.885-0.09-1.328
		c-0.008-3.355,0.001-6.71-0.008-10.065c-0.006-2.306-0.751-4.292-2.884-5.395c-0.833-0.431-1.892-0.483-2.861-0.583
		c-1.49-0.155-3.015-0.064-4.482-0.323c-4.143-0.732-6.837-3.287-8.598-7.022c-0.752-1.595-1.581-3.206-2.665-4.581
		c-1.662-2.108-4.05-2.952-6.707-2.97c-3.457-0.023-6.916-0.059-10.373,0.006c-4.167,0.079-6.964,2.273-8.701,5.942
		c-0.948,2.002-1.673,4.124-3.264,5.762c-2.223,2.288-5.091,3.094-8.108,3.13c-8.489,0.101-16.98,0.012-25.47,0.063
		C9.74,18.4,8.453,18.56,7.368,19.024c-1.788,0.765-2.604,2.37-2.625,4.296C4.704,26.88,4.725,30.44,4.722,34
		c0,0.376,0.005,0.753-0.004,1.13c-0.03,1.296-0.611,2.03-1.634,2.076c-0.985,0.044-1.762-0.593-1.762-1.843
		C1.32,30.816,1.204,26.25,1.573,21.726c0.312-3.828,3.827-6.696,7.821-6.799c4.311-0.111,8.626-0.04,12.939-0.049
		C22.608,14.878,22.881,14.879,23.155,14.879z"/>
	<path fill="#FFFFFF" d="M61.589,14.807c-2.121,0-4.243,0.025-6.364-0.007c-2.009-0.03-3.346-1.067-3.941-2.971
		c-0.568-1.82,0.768-4.067,2.637-4.401c0.536-0.096,1.087-0.155,1.632-0.157c4.037-0.013,8.074-0.011,12.112-0.004
		c1.329,0.002,2.599,0.179,3.506,1.326c0.934,1.181,1.151,2.501,0.559,3.854c-0.662,1.512-1.949,2.29-3.573,2.34
		c-2.188,0.067-4.379,0.017-6.569,0.017C61.589,14.803,61.589,14.805,61.589,14.807z"/>
	<path fill="#FFFFFF" d="M61.793,18.545c5.49,0.233,10.081,2.354,13.541,6.741c0.826,1.048,0.583,2.388-0.527,2.858
		c-1.018,0.431-1.631-0.3-2.304-0.896c-1.347-1.193-2.607-2.547-4.124-3.474c-5.301-3.237-12.988-1.838-16.966,2.937
		c-0.241,0.289-0.464,0.597-0.732,0.858c-0.877,0.854-1.671,0.932-2.447,0.267c-0.684-0.586-0.745-1.638-0.107-2.503
		c1.505-2.04,3.375-3.683,5.629-4.831C56.255,19.23,58.948,18.64,61.793,18.545z"/>
	<path fill="#FFFFFF" d="M23.279,13.149c-1.95,0-3.9,0.02-5.849-0.006c-1.453-0.019-2.202-0.551-2.588-1.735
		c-0.382-1.172-0.036-2.224,1.165-2.99c0.674-0.43,1.462-0.806,2.242-0.925c3.366-0.517,6.756-0.538,10.117,0.007
		c0.898,0.145,1.793,0.645,2.56,1.17c0.97,0.665,1.192,1.781,0.817,2.932c-0.315,0.967-1.062,1.51-2.308,1.532
		c-2.052,0.036-4.105,0.01-6.157,0.01C23.279,13.145,23.279,13.147,23.279,13.149z"/>
	<path fill="#FFFFFF" d="M14.28,20.912c2.033,0.023,3.581,1.714,3.532,3.86c-0.048,2.117-1.606,3.705-3.609,3.678
		c-2.094-0.028-3.824-1.762-3.799-3.807C10.43,22.6,12.207,20.889,14.28,20.912z"/>
</g>
<g>
	<path fill="#FFFFFF" d="M6.94,46.461c0,1.323-0.314,2.323-0.94,3c-0.627,0.678-1.548,1.016-2.763,1.016H1.532v-7.882h1.924
		c1.137,0,2.002,0.329,2.594,0.987C6.644,44.24,6.94,45.199,6.94,46.461z M6.4,46.482c0-1.129-0.259-1.978-0.777-2.547
		c-0.518-0.57-1.279-0.855-2.283-0.855H2.029v6.912h1.179C5.336,49.992,6.4,48.822,6.4,46.482z"/>
	<path fill="#FFFFFF" d="M12.377,47.539c0,0.956-0.21,1.703-0.628,2.24c-0.419,0.537-0.997,0.806-1.735,0.806
		c-0.465,0-0.874-0.124-1.228-0.372c-0.354-0.248-0.625-0.604-0.814-1.067c-0.188-0.464-0.283-0.999-0.283-1.607
		c0-0.956,0.21-1.701,0.628-2.235c0.419-0.534,0.994-0.8,1.725-0.8c0.727,0,1.298,0.271,1.713,0.811
		C12.17,45.856,12.377,46.598,12.377,47.539z M8.196,47.539c0,0.805,0.16,1.433,0.48,1.884c0.32,0.451,0.772,0.677,1.357,0.677
		c0.585,0,1.037-0.226,1.357-0.677c0.32-0.451,0.48-1.079,0.48-1.884c0-0.809-0.162-1.436-0.485-1.882
		c-0.323-0.446-0.777-0.669-1.362-0.669c-0.585,0-1.035,0.222-1.352,0.666C8.355,46.099,8.196,46.727,8.196,47.539z"/>
	<path fill="#FFFFFF" d="M17.077,50.478v-3.801c0-0.589-0.112-1.018-0.336-1.286c-0.224-0.268-0.572-0.402-1.043-0.402
		c-0.633,0-1.097,0.177-1.391,0.531c-0.294,0.354-0.441,0.928-0.441,1.723v3.235h-0.482v-5.861h0.409l0.093,0.803h0.029
		c0.344-0.611,0.956-0.917,1.837-0.917c1.202,0,1.803,0.714,1.803,2.14v3.833L17.077,50.478L17.077,50.478z"/>
	<path fill="#FFFFFF" d="M20.75,44.504c0.383,0,0.714,0.077,0.994,0.232c0.279,0.155,0.529,0.419,0.75,0.792h0.029
		c-0.019-0.453-0.029-0.897-0.029-1.332v-2.108h0.477v8.389h-0.317l-0.122-0.895h-0.039c-0.403,0.669-0.981,1.003-1.735,1.003
		c-0.731,0-1.29-0.252-1.676-0.755c-0.387-0.503-0.58-1.237-0.58-2.2c0-1.014,0.191-1.788,0.575-2.324
		C19.462,44.772,20.019,44.504,20.75,44.504z M20.75,44.989c-0.578,0-1.013,0.225-1.303,0.674c-0.291,0.449-0.436,1.102-0.436,1.957
		c0,1.661,0.583,2.491,1.749,2.491c0.598,0,1.036-0.192,1.315-0.577s0.419-1.019,0.419-1.903v-0.092
		c0-0.906-0.137-1.557-0.412-1.954C21.808,45.188,21.364,44.989,20.75,44.989z"/>
	<path fill="#FFFFFF" d="M26.43,50.585c-0.77,0-1.37-0.262-1.8-0.787c-0.43-0.525-0.645-1.26-0.645-2.205
		c0-0.934,0.208-1.683,0.624-2.246c0.416-0.562,0.976-0.844,1.681-0.844c0.624,0,1.116,0.241,1.476,0.722
		c0.361,0.482,0.541,1.136,0.541,1.963v0.431h-3.815c0.006,0.805,0.176,1.42,0.509,1.844c0.333,0.424,0.809,0.636,1.43,0.636
		c0.302,0,0.568-0.023,0.797-0.07c0.229-0.047,0.519-0.147,0.87-0.302v0.485c-0.299,0.144-0.575,0.242-0.828,0.294
		C27.014,50.559,26.735,50.585,26.43,50.585z M26.288,44.978c-0.51,0-0.919,0.186-1.228,0.558s-0.489,0.909-0.541,1.609h3.274
		c0-0.679-0.133-1.21-0.399-1.593C27.128,45.17,26.759,44.978,26.288,44.978z"/>
	<path fill="#FFFFFF" d="M33.001,50.478v-3.801c0-0.589-0.112-1.018-0.336-1.286s-0.572-0.402-1.043-0.402
		c-0.633,0-1.097,0.177-1.391,0.531c-0.294,0.354-0.441,0.928-0.441,1.723v3.235h-0.482v-5.861h0.409l0.093,0.803h0.029
		c0.344-0.611,0.956-0.917,1.837-0.917c1.202,0,1.803,0.714,1.803,2.14v3.833L33.001,50.478L33.001,50.478L33.001,50.478z"/>
	<path fill="#FFFFFF" d="M35.207,47.906l2.704-3.289h0.584l-2.085,2.502l2.265,3.359h-0.58l-2.012-2.96l-0.867,0.874v2.086h-0.482
		v-8.389h0.482v4.205l-0.034,1.612L35.207,47.906L35.207,47.906z"/>
	<path fill="#FFFFFF" d="M43.484,47.539c0,0.956-0.21,1.703-0.629,2.24c-0.419,0.537-0.997,0.806-1.735,0.806
		c-0.465,0-0.874-0.124-1.228-0.372s-0.625-0.604-0.814-1.067c-0.188-0.464-0.283-0.999-0.283-1.607c0-0.956,0.21-1.701,0.629-2.235
		c0.419-0.534,0.994-0.8,1.725-0.8c0.727,0,1.298,0.271,1.713,0.811C43.277,45.856,43.484,46.598,43.484,47.539z M39.304,47.539
		c0,0.805,0.16,1.433,0.48,1.884c0.32,0.451,0.772,0.677,1.357,0.677s1.037-0.226,1.357-0.677c0.32-0.451,0.48-1.079,0.48-1.884
		c0-0.809-0.162-1.436-0.485-1.882c-0.323-0.446-0.777-0.669-1.362-0.669s-1.035,0.222-1.352,0.666
		C39.462,46.099,39.304,46.727,39.304,47.539z"/>
	<path fill="#FFFFFF" d="M51.034,44.86c0,0.762-0.234,1.346-0.702,1.752c-0.468,0.406-1.13,0.609-1.988,0.609h-1.101v3.256h-0.497
		v-7.882h1.744C50.186,42.595,51.034,43.35,51.034,44.86z M47.243,46.747h0.979c0.802,0,1.382-0.146,1.739-0.439
		c0.357-0.293,0.536-0.768,0.536-1.426c0-0.607-0.169-1.058-0.507-1.351c-0.338-0.293-0.861-0.439-1.569-0.439h-1.179V46.747z"/>
	<path fill="#FFFFFF" d="M55.695,50.478v-3.801c0-0.589-0.112-1.018-0.336-1.286c-0.224-0.268-0.572-0.402-1.043-0.402
		c-0.633,0-1.097,0.177-1.391,0.531c-0.294,0.354-0.441,0.928-0.441,1.723v3.235h-0.482v-8.389h0.482v2.669l-0.024,0.749h0.034
		c0.198-0.352,0.448-0.607,0.75-0.766c0.302-0.158,0.677-0.237,1.126-0.237c1.202,0,1.803,0.714,1.803,2.14v3.833L55.695,50.478
		L55.695,50.478L55.695,50.478z"/>
	<path fill="#FFFFFF" d="M61.809,47.539c0,0.956-0.21,1.703-0.628,2.24c-0.419,0.537-0.997,0.806-1.735,0.806
		c-0.465,0-0.874-0.124-1.228-0.372c-0.354-0.248-0.625-0.604-0.814-1.067c-0.188-0.464-0.283-0.999-0.283-1.607
		c0-0.956,0.21-1.701,0.628-2.235c0.419-0.534,0.994-0.8,1.725-0.8c0.727,0,1.298,0.271,1.713,0.811
		C61.602,45.856,61.809,46.598,61.809,47.539z M57.628,47.539c0,0.805,0.16,1.433,0.48,1.884c0.32,0.451,0.772,0.677,1.357,0.677
		c0.585,0,1.037-0.226,1.357-0.677c0.32-0.451,0.48-1.079,0.48-1.884c0-0.809-0.162-1.436-0.485-1.882
		c-0.323-0.446-0.777-0.669-1.362-0.669s-1.035,0.222-1.352,0.666C57.787,46.099,57.628,46.727,57.628,47.539z"/>
	<path fill="#FFFFFF" d="M64.215,50.111c0.305,0,0.572-0.029,0.799-0.086v0.431c-0.234,0.086-0.503,0.13-0.809,0.13
		c-0.468,0-0.813-0.138-1.035-0.415c-0.223-0.277-0.334-0.712-0.334-1.305v-3.785h-0.784v-0.313l0.784-0.243l0.244-1.326h0.249
		v1.418h1.554v0.464h-1.554v3.709c0,0.449,0.071,0.782,0.214,0.997C63.685,50.003,63.909,50.111,64.215,50.111z"/>
	<path fill="#FFFFFF" d="M70.08,47.539c0,0.956-0.21,1.703-0.629,2.24c-0.419,0.537-0.997,0.806-1.735,0.806
		c-0.465,0-0.874-0.124-1.228-0.372c-0.354-0.248-0.625-0.604-0.814-1.067c-0.188-0.464-0.283-0.999-0.283-1.607
		c0-0.956,0.21-1.701,0.628-2.235c0.419-0.534,0.994-0.8,1.725-0.8c0.727,0,1.298,0.271,1.713,0.811
		C69.873,45.856,70.08,46.598,70.08,47.539z M65.899,47.539c0,0.805,0.16,1.433,0.48,1.884c0.32,0.451,0.772,0.677,1.357,0.677
		c0.585,0,1.037-0.226,1.357-0.677c0.32-0.451,0.48-1.079,0.48-1.884c0-0.809-0.162-1.436-0.485-1.882
		c-0.323-0.446-0.777-0.669-1.362-0.669c-0.585,0-1.035,0.222-1.352,0.666C66.058,46.099,65.899,46.727,65.899,47.539z"/>
	<path fill="#FFFFFF" d="M75.219,44.617v0.372l-1.096,0.076c0.292,0.403,0.438,0.845,0.438,1.326c0,0.564-0.17,1.022-0.509,1.372
		s-0.795,0.526-1.367,0.526c-0.24,0-0.409-0.011-0.507-0.032c-0.192,0.111-0.338,0.243-0.438,0.394s-0.151,0.311-0.151,0.48
		c0,0.187,0.064,0.324,0.192,0.41s0.344,0.13,0.645,0.13h0.926c0.575,0,1.015,0.129,1.32,0.385c0.305,0.257,0.458,0.637,0.458,1.14
		c0,0.618-0.227,1.095-0.68,1.432c-0.453,0.336-1.099,0.504-1.937,0.504c-0.666,0-1.181-0.142-1.547-0.426s-0.548-0.679-0.548-1.186
		c0-0.403,0.113-0.737,0.339-1.003c0.226-0.266,0.532-0.448,0.918-0.545c-0.159-0.076-0.287-0.182-0.382-0.321
		c-0.096-0.138-0.144-0.297-0.144-0.477c0-0.392,0.226-0.737,0.677-1.035c-0.309-0.14-0.549-0.36-0.721-0.66
		s-0.258-0.644-0.258-1.032c0-0.586,0.168-1.056,0.504-1.41c0.336-0.354,0.79-0.531,1.362-0.531c0.347,0,0.617,0.038,0.809,0.113
		L75.219,44.617L75.219,44.617z M70.931,51.47c0,0.805,0.541,1.208,1.622,1.208c1.39,0,2.085-0.491,2.085-1.472
		c0-0.352-0.109-0.607-0.326-0.766c-0.218-0.158-0.57-0.237-1.057-0.237h-0.867C71.417,50.203,70.931,50.625,70.931,51.47z
		 M71.335,46.445c0,0.453,0.124,0.804,0.373,1.054c0.249,0.25,0.581,0.375,0.996,0.375c0.442,0,0.78-0.124,1.016-0.372
		c0.235-0.248,0.353-0.607,0.353-1.078c0-0.5-0.121-0.874-0.363-1.124c-0.242-0.25-0.581-0.375-1.016-0.375
		c-0.422,0-0.755,0.134-0.996,0.402C71.457,45.594,71.335,45.967,71.335,46.445z"/>
	<path fill="#FFFFFF" d="M77.931,44.504c0.224,0,0.464,0.025,0.721,0.075l-0.093,0.512C78.339,45.03,78.11,45,77.873,45
		c-0.451,0-0.822,0.212-1.111,0.636c-0.289,0.424-0.434,0.96-0.434,1.607v3.235h-0.482v-5.861h0.409l0.049,1.057h0.034
		c0.218-0.431,0.45-0.734,0.697-0.909C77.282,44.591,77.581,44.504,77.931,44.504z"/>
	<path fill="#FFFFFF" d="M82.486,50.478l-0.122-0.927h-0.039c-0.266,0.377-0.54,0.644-0.821,0.801
		c-0.281,0.156-0.613,0.234-0.996,0.234c-0.52,0-0.924-0.147-1.213-0.442c-0.289-0.295-0.434-0.703-0.434-1.224
		c0-0.572,0.215-1.015,0.645-1.332c0.43-0.316,1.053-0.483,1.868-0.501l1.009-0.032v-0.388c0-0.557-0.102-0.978-0.307-1.262
		s-0.534-0.426-0.989-0.426c-0.491,0-0.999,0.151-1.525,0.453l-0.18-0.464c0.581-0.302,1.156-0.453,1.725-0.453
		c0.581,0,1.016,0.167,1.303,0.501c0.287,0.334,0.431,0.856,0.431,1.564v3.898L82.486,50.478L82.486,50.478z M80.537,50.1
		c0.565,0,1.011-0.179,1.337-0.536c0.326-0.358,0.49-0.854,0.49-1.491v-0.577l-0.926,0.043c-0.744,0.04-1.274,0.168-1.591,0.385
		s-0.475,0.556-0.475,1.016c0,0.367,0.101,0.651,0.304,0.855C79.88,49.999,80.167,50.1,80.537,50.1z"/>
	<path fill="#FFFFFF" d="M86.363,50.585c-0.815,0-1.41-0.338-1.783-1.014h-0.034l0.015,0.453c0.013,0.266,0.019,0.557,0.019,0.873
		v2.232h-0.482v-8.513h0.409l0.093,0.836h0.029c0.364-0.633,0.945-0.949,1.744-0.949c0.714,0,1.259,0.26,1.635,0.779
		c0.375,0.519,0.563,1.275,0.563,2.267c0,0.963-0.197,1.71-0.592,2.24C87.584,50.32,87.045,50.585,86.363,50.585z M86.353,50.111
		c0.542,0,0.962-0.223,1.259-0.669c0.297-0.446,0.446-1.069,0.446-1.871c0-1.722-0.562-2.583-1.686-2.583
		c-0.617,0-1.07,0.188-1.359,0.563c-0.289,0.376-0.434,0.988-0.434,1.836v0.173c0,0.917,0.139,1.571,0.417,1.962
		C85.274,49.915,85.726,50.111,86.353,50.111z"/>
	<path fill="#FFFFFF" d="M93.271,50.478v-3.801c0-0.589-0.112-1.018-0.336-1.286c-0.224-0.268-0.572-0.402-1.043-0.402
		c-0.633,0-1.097,0.177-1.391,0.531c-0.294,0.354-0.441,0.928-0.441,1.723v3.235h-0.482v-8.389h0.482v2.669l-0.024,0.749h0.034
		c0.198-0.352,0.448-0.607,0.75-0.766c0.302-0.158,0.677-0.237,1.126-0.237c1.202,0,1.803,0.714,1.803,2.14v3.833L93.271,50.478
		L93.271,50.478L93.271,50.478z"/>
	<path fill="#FFFFFF" d="M94.117,44.617h0.497l1.12,3.289c0.341,1.01,0.557,1.691,0.648,2.043h0.029
		c0.137-0.464,0.359-1.156,0.667-2.076l1.12-3.256h0.497l-2.373,6.809c-0.192,0.554-0.353,0.927-0.482,1.121
		c-0.13,0.194-0.282,0.34-0.456,0.437c-0.174,0.097-0.384,0.145-0.631,0.145c-0.185,0-0.391-0.038-0.619-0.113v-0.464
		c0.188,0.057,0.391,0.086,0.609,0.086c0.166,0,0.312-0.043,0.438-0.13c0.127-0.086,0.241-0.22,0.344-0.402
		c0.102-0.182,0.221-0.469,0.356-0.863c0.135-0.394,0.222-0.65,0.261-0.768L94.117,44.617z"/>
</g>
</svg>
